<svg xmlns="http://www.w3.org/2000/svg" viewBox="0 0 300 300"><rect width="300" height="300" rx="40.279" style="fill:#fd0"/><path d="M150 40.992c-56.923 0-103.069 42.684-103.069 95.336 0 38.887 16.287 57.45 38.593 74.373l.107.046v45.636a2.621 2.621 0 0 0 4.184 2.1l39.085-29.031.841.365A111.675 111.675 0 0 0 150 231.663c56.924 0 103.069-42.684 103.069-95.335S206.924 40.992 150 40.992m-34.55 119.494c10.1 0 18.746-6.048 21.343-15.392h14.945c-3.655 17.983-17.648 29.768-36.288 29.768-21.662 0-38.839-16.155-38.839-38.642s17.177-38.641 38.839-38.641c18.828 0 32.919 12.021 36.4 30.312h-14.9c-2.267-9.945-11.2-16.143-21.5-16.143-14.566 0-24.254 10.391-24.254 24.472a23.93 23.93 0 0 0 24.254 24.266m98.466 12.893h-13.695v-30.892c0-7.114-4.14-10.936-10.51-10.936-7.112 0-11.677 4.352-11.677 13.163v28.665h-13.7v-75.56h13.7v28.423c3.29-4.989 8.6-7.431 15.817-7.431 5.839 0 10.617 1.91 14.332 5.838 3.823 3.929 5.733 9.237 5.733 16.137Z" style="fill:#231815"/></svg>