<svg xmlns="http://www.w3.org/2000/svg" width="160" height="37.582" viewBox="0 0 160 37.582">
  <g id="그룹_72619" data-name="그룹 72619" transform="translate(0 0)">
    <g id="그룹_72617" data-name="그룹 72617" transform="translate(43.115 6.671)">
      <path id="패스_1" data-name="패스 1" d="M84.33,4.034h-.222a4.733,4.733,0,0,0-3.669,3.224,3.247,3.247,0,0,0-.222,1V19.937L77.1,16.824l-7.227-7.23L64.538,4.256A2.311,2.311,0,0,0,63.21,3.7,2.052,2.052,0,0,0,61.2,5.923V17.6h0V27.16h.112a5.135,5.135,0,0,0,4-3.336c0-.112,0-.112.112-.222,0-.112.112-.222.112-.334V11.15L68.1,13.6l4.78,4.67,3.891,3.891L81.1,26.493a2.95,2.95,0,0,0,1.556.556c1,0,1.778-.779,1.778-2.335V13.262l-.112-9.228Z" transform="translate(-36.27 -3.7)" fill="#fff"/>
      <path id="패스_2" data-name="패스 2" d="M102.523,22.746H90.96a2.308,2.308,0,0,1-1.668-.445,1.588,1.588,0,0,1-.557-1.446v-10c0-1.223.557-1.89,2.223-1.89H102.3a.84.84,0,0,0,.445-.112,7.084,7.084,0,0,1,.779-.222,4.664,4.664,0,0,0,1.556-1,5.79,5.79,0,0,0,1.89-3V4.4H90.854c-4.78,0-6.454,2.113-6.454,6.226V20.967c0,4,1.668,6.226,6.454,6.226h15.895v-.334A4.835,4.835,0,0,0,102.523,22.746Z" transform="translate(-33.672 -3.621)" fill="#fff"/>
      <path id="패스_3" data-name="패스 3" d="M59.266,14.786a6.606,6.606,0,0,0-4.892-1.446H45.146c-1.668,0-2.445-.667-2.445-1.89V10.338c0-1.223.779-1.89,2.445-1.89H55.932a4.788,4.788,0,0,0,4.336-2.78A9.265,9.265,0,0,0,60.712,4H45.262c-4.78,0-6.454,2.113-6.454,6.226v1.446a6.374,6.374,0,0,0,1.556,4.78,6.606,6.606,0,0,0,4.9,1.446H54.49c1.668,0,2.445.667,2.445,1.89V20.9c0,1.223-.779,1.89-2.445,1.89H43.7a4.788,4.788,0,0,0-4.336,2.78,4.66,4.66,0,0,0-.445,1.668h15.45c4.78,0,6.454-2.113,6.454-6.226V19.566A6.374,6.374,0,0,0,59.266,14.786Z" transform="translate(-38.782 -3.666)" fill="#fff"/>
      <path id="패스_4" data-name="패스 4" d="M114.3,23.453h4.225a3.025,3.025,0,0,1,2.78,3H111.3V10a3.461,3.461,0,0,1,2.113,1.223,4,4,0,0,1,.889,2.008V23.453Z" transform="translate(-30.662 -2.995)" fill="#fff"/>
      <path id="패스_5" data-name="패스 5" d="M122,21.9Z" transform="translate(-29.466 -1.664)" fill="#fff"/>
      <path id="패스_6" data-name="패스 6" d="M130.139,14.2h-8.117v.112a2.767,2.767,0,0,0,1.334,1.89,2.651,2.651,0,0,0,1.223.667h4.113c.222,0,.667.112.889.112a1.529,1.529,0,0,1,.667,1.446h-5.671a3.187,3.187,0,0,0-2.78,2.78v1.556a3.132,3.132,0,0,0,2.78,3.114h8.451V17.314a3.548,3.548,0,0,0-2.89-3.114Zm.112,7.784v1.109h-.112v.222h-4.67a.957.957,0,0,1-.889-.889.876.876,0,0,1,.889-.889h4.78V23.2h.112V21.981Z" transform="translate(-29.489 -2.525)" fill="#fff"/>
      <path id="패스_7" data-name="패스 7" d="M136.2,21.883v3.224h0Z" transform="translate(-27.876 -1.647)" fill="#fff"/>
      <path id="패스_8" data-name="패스 8" d="M133.7,23.357V20.8h0v4.446h0Z" transform="translate(-28.156 -1.787)" fill="#fff"/>
      <path id="패스_9" data-name="패스 9" d="M136.493,13.546v-.222a2.784,2.784,0,0,0-.889-2.008,3.214,3.214,0,0,0-2.008-1.223v4.67l2.78.889Z" transform="translate(-28.17 -2.988)" fill="#fff"/>
      <path id="패스_10" data-name="패스 10" d="M142.956,16.98a3.3,3.3,0,0,0-2.78-2.78h.112a3.217,3.217,0,0,1,2.78,3.114v-.222C142.956,17.091,142.956,17.091,142.956,16.98Z" transform="translate(-26.183 -2.525)" fill="#fff"/>
      <path id="패스_11" data-name="패스 11" d="M136.2,16.208V14.2h0v2.008Z" transform="translate(-27.876 -2.525)" fill="#fff"/>
      <path id="패스_12" data-name="패스 12" d="M133.7,16.09V14.2h0v4.446h0Z" transform="translate(-28.156 -2.525)" fill="#fff"/>
      <path id="패스_13" data-name="패스 13" d="M140.154,25.114h0a3.074,3.074,0,0,0,2.78-2.669V22a3.217,3.217,0,0,1-2.78,3.114Z" transform="translate(-26.159 -1.652)" fill="#fff"/>
      <path id="패스_14" data-name="패스 14" d="M142.151,14.312H136.48V14.2H133.7v4.336h0v3h0v4.337h2.78v.112h5.671a3.217,3.217,0,0,0,2.78-3.114V17.314A3.025,3.025,0,0,0,142.151,14.312Zm.112,8.006a.876.876,0,0,1-.889.889h-4.78V16.98h4.78a.957.957,0,0,1,.889.889" transform="translate(-28.156 -2.525)" fill="#fff"/>
    </g>
    <g id="그룹_72618" data-name="그룹 72618" transform="translate(0 0)">
      <g id="그룹_1" data-name="그룹 1" transform="translate(0.334)">
        <path id="패스_15" data-name="패스 15" d="M37.214,7.888,18.646,0,.3,7.888l7.672,3.12,9.34-4,4.225,1.668-9.23,4,6.671,2.78Z" transform="translate(-0.3)" fill="#fff"/>
      </g>
      <path id="패스_16" data-name="패스 16" d="M35.646,16.361V7.8L17.3,15.138V36.709l18.346-7.338V20.7l-9.118,3.781V20.135Z" transform="translate(1.935 0.873)" fill="#fff"/>
      <g id="그룹_3" data-name="그룹 3" transform="translate(0 8.673)">
        <g id="그룹_2" data-name="그룹 2">
          <path id="패스_17" data-name="패스 17" d="M9.228,16.806l9.34,3.781v-5.45L0,7.8V21.253l9.228,3.669v2.671L0,23.923V29.26l18.568,7.45V23.256l-9.34-3.781Z" transform="translate(0 -7.8)" fill="#fff"/>
        </g>
      </g>
    </g>
  </g>
</svg>
