<svg id="Layer_1" data-name="Layer 1" xmlns="http://www.w3.org/2000/svg" viewBox="0 0 101.60364 28.77033">
  <defs>
    <style>
      .cls-1 {
        fill: none;
      }
    </style>
  </defs>
  <path d="M97.0751,17.19107v10.276h-4.914v-10.276c0-2.771-1.075-4.467-3.756-4.467-2.68,0-3.752,1.696-3.752,4.467v10.276h-4.915v-10.276c0-5.721,2.948-9.026,8.757-9.026,5.719-.001,8.58,3.217,8.58,9.026m-76.673.893a9.3816,9.3816,0,0,1-8.91072,9.83q-.45887.02251-.91828,0A9.52608,9.52608,0,0,1,.654,18.7979q-.017-.40224.00008-.80483V1.73107h4.916v9.024a7.75653,7.75653,0,0,1,5.897-2.502c5.361-.089,8.935,3.933,8.935,9.831m-5.004,0a4.99052,4.99052,0,0,0-4.69954-5.26543q-.10764-.0061-.21546-.00757a5.04424,5.04424,0,0,0-4.91772,5.16765q.00132.0527.00372.10535A4.98916,4.98916,0,0,0,10.268,23.34753q.10747.00609.21513.00754a4.98783,4.98783,0,0,0,4.92265-5.05215q-.00143-.1095-.00765-.21885m26.005.357a8.63672,8.63672,0,0,1-.09,1.52h-14.03c.269,2.324,2.414,3.842,5.005,3.842a6.81123,6.81123,0,0,0,4.915-1.787l2.502,3.396a11.7061,11.7061,0,0,1-7.417,2.503c-5.988,0-10.009-3.934-10.009-9.742A9.66071,9.66071,0,0,1,31.58591,8.171q.21651-.0078.4332-.00588c5.898-.001,9.384,3.843,9.384,10.276m-5.005-2.056c-.357-2.321-1.787-4.108-4.558-4.108a4.44077,4.44077,0,0,0-4.558,4.108Zm7.595,10.991h4.915V1.73107h-4.915Zm25.648-18.587h-5.721l-6.61,8.221V1.73107h-4.915v25.736h4.915v-8.936l6.61,8.937h5.989l-7.596-10.098Zm2.143,18.587h4.915V8.78906h-4.915Zm2.503-26.628a2.822,2.822,0,0,0-2.859,2.78451q-.0005.03723,0,.07449a2.8585,2.8585,0,1,0,2.859-2.859"/>
  <rect class="cls-1" width="101.60364" height="28.77033"/>
</svg>
