<svg xmlns="http://www.w3.org/2000/svg" width="158" height="24" viewBox="0 0 158 24"><g transform="translate(-1166 -2921)"><path d="M14.318,12.393l-.041-.032a2.338,2.338,0,0,0-2.9.136l-.044.035a3.821,3.821,0,0,1-2.546.783,4.13,4.13,0,0,1-2.168-.557,3.772,3.772,0,0,1-1.451-1.533,4.9,4.9,0,0,1-.535-2.321A4.554,4.554,0,0,1,5.759,5.642a3.728,3.728,0,0,1,2.89-1.175,4,4,0,0,1,1.565.283,3.61,3.61,0,0,1,1.224.89,2.359,2.359,0,0,0,1.8.822A2,2,0,0,0,14.413,6.1a2.137,2.137,0,0,0,1.031-1.816,1.979,1.979,0,0,0-.511-1.344A8,8,0,0,0,8.649.057,8.845,8.845,0,0,0,4.2,1.191,8.024,8.024,0,0,0,1.1,4.375,9.382,9.382,0,0,0,0,8.906a9.064,9.064,0,0,0,1.13,4.483,8.258,8.258,0,0,0,3.156,3.188,8.963,8.963,0,0,0,4.506,1.149,8.19,8.19,0,0,0,5.786-2.181,1.99,1.99,0,0,0,.611-1.422,2.224,2.224,0,0,0-.869-1.73" transform="translate(1166 2920.971)" fill="#135eba"/><path d="M44.134,1.19A8.961,8.961,0,0,0,39.644.057a9.1,9.1,0,0,0-4.53,1.132,8.077,8.077,0,0,0-3.147,3.163,9.247,9.247,0,0,0-1.114,4.553,9.191,9.191,0,0,0,1.114,4.524A8.084,8.084,0,0,0,35.114,16.6a9.612,9.612,0,0,0,9.048,0,8.117,8.117,0,0,0,3.13-3.164,9.189,9.189,0,0,0,1.115-4.524,9.161,9.161,0,0,0-1.132-4.558A8.223,8.223,0,0,0,44.134,1.19m-.9,10.036a3.785,3.785,0,0,1-1.452,1.533,4.39,4.39,0,0,1-4.278,0,3.884,3.884,0,0,1-1.471-1.542,4.732,4.732,0,0,1-.543-2.312,4.818,4.818,0,0,1,.546-2.332A3.865,3.865,0,0,1,37.5,5.023a4.393,4.393,0,0,1,4.278,0,3.767,3.767,0,0,1,1.45,1.544,4.994,4.994,0,0,1,.537,2.339,4.912,4.912,0,0,1-.535,2.321" transform="translate(1150.573 2920.971)" fill="#135eba"/><path d="M84.838,0A7.606,7.606,0,0,0,81.6.686a6.992,6.992,0,0,0-1.7,1.109,5.913,5.913,0,0,0-1.53-1.11A6.647,6.647,0,0,0,75.344,0a6.852,6.852,0,0,0-2.57.481,6.54,6.54,0,0,0-1.034.528,2.4,2.4,0,0,0-.179-.194,2.476,2.476,0,0,0-3.346.015,2.324,2.324,0,0,0-.695,1.718V15.236a2.4,2.4,0,0,0,4.094,1.68,2.366,2.366,0,0,0,.657-1.68V7.194A2.788,2.788,0,0,1,72.98,5.2a2.314,2.314,0,0,1,1.792-.734,2.188,2.188,0,0,1,1.661.617,2.8,2.8,0,0,1,.61,2v8.156a2.4,2.4,0,0,0,4.094,1.68,2.367,2.367,0,0,0,.658-1.68V7.194a2.789,2.789,0,0,1,.708-2,2.276,2.276,0,0,1,1.764-.733,2.188,2.188,0,0,1,1.662.618,2.8,2.8,0,0,1,.61,2v8.156a2.4,2.4,0,0,0,4.093,1.681,2.369,2.369,0,0,0,.658-1.681V7.08a7.275,7.275,0,0,0-1.774-5.163A6.149,6.149,0,0,0,84.838,0" transform="translate(1131.966 2921)" fill="#135eba"/><path d="M130.819,1.208A8.916,8.916,0,0,0,126.354.057a9.029,9.029,0,0,0-3.109.537l0-.006c-.026.01-.051.023-.076.034a8.632,8.632,0,0,0-1.213.565,2.22,2.22,0,0,0-.285-.354,2.509,2.509,0,0,0-3.385-.011,2.284,2.284,0,0,0-.7,1.7V21.678a2.288,2.288,0,0,0,.695,1.7,2.511,2.511,0,0,0,3.387-.011,2.315,2.315,0,0,0,.669-1.687V16.137a8.071,8.071,0,0,0,11.741-2.906,9.288,9.288,0,0,0,1.062-4.418A8.814,8.814,0,0,0,134,4.37a8.4,8.4,0,0,0-3.181-3.163m-.866,9.858a4.074,4.074,0,0,1-1.495,1.552,4.076,4.076,0,0,1-5.685-1.544,4.592,4.592,0,0,1-.544-2.261,4.671,4.671,0,0,1,.546-2.278,4.134,4.134,0,0,1,5.683-1.556,4.058,4.058,0,0,1,1.492,1.562,4.574,4.574,0,0,1,.557,2.272,4.5,4.5,0,0,1-.555,2.253" transform="translate(1106.749 2920.971)" fill="#135eba"/><path d="M167.729.23a2.367,2.367,0,0,0-1.681.657,2.325,2.325,0,0,0-.694,1.717v8.041a2.331,2.331,0,0,1-.4,1.34,2.922,2.922,0,0,1-1.183,1,3.913,3.913,0,0,1-1.773.39,3.663,3.663,0,0,1-2.658-.928,3.715,3.715,0,0,1-.954-2.826V2.6a2.376,2.376,0,1,0-4.752,0V9.62a9.165,9.165,0,0,0,.994,4.386,6.97,6.97,0,0,0,2.822,2.867,8.223,8.223,0,0,0,3.977.967,8.136,8.136,0,0,0,3.02-.564,7.55,7.55,0,0,0,1.275-.65,2.281,2.281,0,0,0,.314.388,2.455,2.455,0,0,0,3.41-.011,2.365,2.365,0,0,0,.658-1.681V2.6A2.355,2.355,0,0,0,169.435.9,2.353,2.353,0,0,0,167.729.23" transform="translate(1088.592 2920.885)" fill="#135eba"/><path d="M200.007,13.2h-5.394l6.929-9.19a2.388,2.388,0,0,0,.441-1.466A2.1,2.1,0,0,0,199.721.284H190a2.1,2.1,0,0,0-2.262,2.262A2.1,2.1,0,0,0,190,4.808h5.419L188.462,14a2.385,2.385,0,0,0-.441,1.464,2.1,2.1,0,0,0,2.262,2.262h9.723a2.1,2.1,0,0,0,2.26-2.262,2.1,2.1,0,0,0-2.26-2.261" transform="translate(1071.419 2920.858)" fill="#135eba"/><path d="M227.651,1.19a8.96,8.96,0,0,0-4.49-1.133,9.1,9.1,0,0,0-4.53,1.132,8.078,8.078,0,0,0-3.147,3.163,9.263,9.263,0,0,0-1.114,4.553,9.2,9.2,0,0,0,1.114,4.524,8.094,8.094,0,0,0,3.147,3.165,9.612,9.612,0,0,0,9.048,0,8.121,8.121,0,0,0,3.13-3.164,9.2,9.2,0,0,0,1.115-4.524,9.172,9.172,0,0,0-1.13-4.558,8.213,8.213,0,0,0-3.143-3.158m-.9,10.036A3.784,3.784,0,0,1,225.3,12.76a4.389,4.389,0,0,1-4.278,0,3.881,3.881,0,0,1-1.47-1.542,4.724,4.724,0,0,1-.545-2.312,4.818,4.818,0,0,1,.546-2.332,3.87,3.87,0,0,1,1.467-1.551,4.394,4.394,0,0,1,4.279,0,3.77,3.77,0,0,1,1.45,1.544,4.994,4.994,0,0,1,.536,2.339,4.9,4.9,0,0,1-.535,2.321" transform="translate(1057.983 2920.971)" fill="#135eba"/><path d="M263.693.97a8.53,8.53,0,0,0-7-.4,7.579,7.579,0,0,0-1.26.642,2.157,2.157,0,0,0-.315-.394A2.489,2.489,0,0,0,251.734.8a2.321,2.321,0,0,0-.7,1.718V15.237a2.4,2.4,0,0,0,4.093,1.681,2.366,2.366,0,0,0,.658-1.681V7.2a2.332,2.332,0,0,1,.4-1.339,2.952,2.952,0,0,1,1.184-1,3.934,3.934,0,0,1,1.774-.39A3.661,3.661,0,0,1,261.8,5.4a3.711,3.711,0,0,1,.956,2.826v7.016a2.376,2.376,0,1,0,4.751,0V8.221a9.18,9.18,0,0,0-.995-4.387A6.97,6.97,0,0,0,263.693.97" transform="translate(1039.383 2921)" fill="#135eba"/><path d="M300.9,10.212a2.115,2.115,0,0,0,.654-1.564,9.879,9.879,0,0,0-.949-4.4,7.333,7.333,0,0,0-2.8-3.09,8.1,8.1,0,0,0-4.27-1.1A8.765,8.765,0,0,0,289.1,1.192a8.047,8.047,0,0,0-3.087,3.182,9.379,9.379,0,0,0-1.1,4.531,8.924,8.924,0,0,0,1.165,4.539,8.289,8.289,0,0,0,3.25,3.156,9.616,9.616,0,0,0,7.679.591,8.793,8.793,0,0,0,2.669-1.39,1.94,1.94,0,0,0,.824-1.591,2.269,2.269,0,0,0-2.289-2.177,2.373,2.373,0,0,0-1.5.5,4.473,4.473,0,0,1-1.264.631,4.877,4.877,0,0,1-4.566-.753,4,4,0,0,1-1.193-1.588h9.634a2.225,2.225,0,0,0,1.578-.613M289.735,6.7a3.875,3.875,0,0,1,1.029-1.437,4.011,4.011,0,0,1,2.772-.911,3.275,3.275,0,0,1,2.406.878,3.7,3.7,0,0,1,.916,1.47Z" transform="translate(1022.445 2920.971)" fill="#135eba"/></g></svg>