<svg xmlns="http://www.w3.org/2000/svg" width="174" height="48" viewBox="0 0 174 48" fill="none">
<path d="M72.2861 16.1975H75.2666V18.8083H77.6162V20.8823H75.2666V25.9733C75.2666 26.8725 75.8105 27.4962 76.7097 27.4962C77.1956 27.4962 77.4639 27.4455 77.5509 27.431V29.2295C77.3986 29.2802 76.5864 29.5413 75.4842 29.5413C73.0548 29.5413 72.2861 27.9894 72.2861 26.0168V16.1975Z" fill="black"></path>
<path d="M99.8574 18.8084H96.877V29.2296H99.8792V22.9639C99.8792 21.7165 100.546 20.8825 101.736 20.8825C103.077 20.8825 103.621 21.8688 103.621 22.9639V29.2296H106.623V22.2604C106.623 20.1065 105.427 18.4966 102.889 18.4966C100.822 18.4966 100.104 19.7294 99.9009 20.0703H99.8574V18.8084Z" fill="black"></path>
<path d="M95.8547 18.4966C93.1425 18.4966 92.5116 20.0195 92.3013 20.4982H92.2578V18.8084H89.5674V29.2296H92.5696V24.0589C92.5696 21.818 94.0635 20.897 95.8547 20.897V18.4966Z" fill="black"></path>
<path d="M68.8612 21.7383L70.7829 20.4401C70.5363 20.0195 69.5138 18.4966 66.5188 18.4966C64.2853 18.4966 62.4288 19.6497 62.4288 21.673C62.4288 23.5658 63.7994 24.465 65.3151 24.9292C65.7647 25.067 66.2143 25.1975 66.6131 25.328C67.4253 25.5891 68.049 25.8139 68.049 26.4376C68.049 26.996 67.4326 27.3876 66.3448 27.3876C64.9452 27.3876 64.2998 26.5391 64.0677 26.1838L62.0518 27.3151C62.2476 27.801 63.3353 29.5415 66.5261 29.5415C68.9627 29.5415 71.0367 28.5117 71.0367 26.2345C71.0367 24.3345 69.6806 23.4425 68.078 22.9493C67.6719 22.8261 67.273 22.7028 66.9104 22.594C66.1853 22.3764 65.4166 22.1734 65.4166 21.4844C65.4166 20.9768 65.8952 20.6577 66.7872 20.6577C68.1795 20.6504 68.6581 21.4482 68.8612 21.7383Z" fill="black"></path>
<path d="M49.056 14.2466L46.3292 24.9223L43.6096 14.2466H39.8602L37.0608 25.2269L34.2542 14.2466H31.085L34.9504 29.2303H38.9319L41.637 18.6126L44.3493 29.2303H48.0987L51.9714 14.2466H49.056Z" fill="black"></path>
<path d="M61.4346 24.0154C61.4346 21.2814 59.7957 18.4966 56.2641 18.4966C53.0878 18.4966 51.0791 20.8825 51.0791 24.0154C51.0791 27.0975 53.0516 29.5342 56.3874 29.5342C59.3171 29.5342 60.4339 27.7937 60.7022 27.2208L58.679 26.0532C58.5412 26.3143 58.0336 27.3804 56.4019 27.3804C55.0893 27.3804 54.1611 26.3578 54.0668 24.9219H61.4346C61.4346 24.9292 61.4346 24.0372 61.4346 24.0154ZM54.0668 22.8551C54.1829 21.6875 54.8283 20.6359 56.2641 20.6359C57.6129 20.6359 58.3236 21.6005 58.4397 22.8551H54.0668Z" fill="black"></path>
<path d="M88.1954 24.0154C88.1954 21.2814 86.5565 18.4966 83.0249 18.4966C79.8486 18.4966 77.8398 20.8825 77.8398 24.0154C77.8398 27.0975 79.8123 29.5342 83.1481 29.5342C86.0779 29.5342 87.1946 27.7937 87.463 27.2208L85.4397 26.0532C85.3019 26.3143 84.7943 27.3804 83.1626 27.3804C81.8501 27.3804 80.9219 26.3578 80.8276 24.9219H88.1954C88.1954 24.9292 88.1954 24.0372 88.1954 24.0154ZM80.8276 22.8551C80.9436 21.6875 81.589 20.6359 83.0249 20.6359C84.3737 20.6359 85.0844 21.6005 85.2004 22.8551H80.8276Z" fill="black"></path>
<path d="M148.368 16.1975H151.349V18.8083H153.698V20.8823H151.349V25.9733C151.349 26.8725 151.893 27.4962 152.792 27.4962C153.278 27.4962 153.546 27.4455 153.633 27.431V29.2295C153.481 29.2802 152.668 29.5413 151.566 29.5413C149.137 29.5413 148.368 27.9894 148.368 26.0168V16.1975Z" fill="black"></path>
<path d="M117.466 14.2466H112.36V29.2293H117.466C122.23 29.2293 125.044 26.9449 125.044 21.738C125.044 16.5237 122.121 14.2466 117.466 14.2466ZM117.277 26.7346H115.573V16.734H117.277C121.142 16.734 121.744 19.352 121.744 21.738C121.744 24.1239 121.179 26.7346 117.277 26.7346Z" fill="black"></path>
<path d="M168.797 14.2466H165.715V29.2293H168.797V14.2466Z" fill="black"></path>
<path d="M171.742 26.9821C171.031 26.9821 170.466 27.5477 170.466 28.2512C170.466 28.9619 171.039 29.5275 171.742 29.5275C172.446 29.5275 173.011 28.9619 173.011 28.2512C173.011 27.555 172.446 26.9821 171.742 26.9821ZM171.742 29.31C171.162 29.31 170.691 28.8386 170.691 28.2584C170.691 27.6855 171.162 27.2141 171.742 27.2141C172.322 27.2141 172.786 27.6855 172.786 28.2584C172.786 28.8386 172.322 29.31 171.742 29.31Z" fill="black"></path>
<path d="M172.213 28.5485C172.192 28.389 172.126 28.2874 171.974 28.2512V28.2439C172.119 28.2149 172.257 28.1206 172.257 27.8958C172.257 27.5985 172.018 27.4825 171.72 27.4825H171.249V28.9836H171.503V28.3527H171.662C171.858 28.3527 171.945 28.447 171.974 28.7153C171.989 28.8096 172.003 28.9836 172.003 28.9836H172.257C172.264 28.9836 172.228 28.7081 172.213 28.5485ZM171.735 28.1496H171.51V27.7H171.735C171.923 27.7 172.003 27.816 172.003 27.9248C172.003 28.0409 171.916 28.1496 171.735 28.1496Z" fill="black"></path>
<path d="M138.346 18.8084V19.9252H138.302C138.121 19.6061 137.381 18.4966 135.445 18.4966C132.254 18.4966 131.094 21.1001 131.094 23.7543C131.094 26.4158 132.254 29.0121 135.445 29.0121C137.417 29.0121 138.15 27.859 138.302 27.5834H138.346V28.7728C138.346 30.2087 137.323 31.1007 136.134 31.1007C134.77 31.1007 134.052 30.1869 133.857 29.8388C133.588 29.9766 131.841 31.0209 131.841 31.0209C132.051 31.4633 132.95 33.3343 136.228 33.3343C139.673 33.3343 141.326 31.1297 141.326 28.0475V18.8084H138.346ZM136.33 26.7784C134.625 26.7784 134.314 25.1105 134.314 23.7616C134.314 22.2241 134.741 20.7447 136.33 20.7447C137.91 20.7447 138.346 22.2241 138.346 23.7616C138.346 25.1105 137.997 26.7784 136.33 26.7784Z" fill="black"></path>
<path d="M158.695 18.4966C155.932 18.4966 154.888 19.9833 154.605 20.3459L156.338 21.673C156.614 21.2959 157.288 20.6359 158.478 20.6359C159.819 20.6359 160.66 21.2814 160.66 22.4127V22.6448C160.66 22.6448 159.478 22.6448 159.34 22.6448C156.302 22.6448 154.322 23.7688 154.322 26.162C154.322 28.1926 155.773 29.5415 157.731 29.5415C159.834 29.5415 160.559 28.3956 160.711 28.1926H160.747C160.747 28.6277 160.747 29.2369 160.747 29.2369H163.663V22.6375C163.663 19.6497 161.277 18.4966 158.695 18.4966ZM160.668 25.0815C160.668 26.3071 160.131 27.3876 158.833 27.3876C157.963 27.3876 157.317 26.851 157.317 25.9807C157.317 25.1105 157.919 24.4505 159.486 24.4505C159.565 24.4505 160.668 24.4505 160.668 24.4505C160.668 24.4505 160.668 25.067 160.668 25.0815Z" fill="black"></path>
<path d="M129.7 18.8084H126.618V29.2224H129.7V18.8084Z" fill="black"></path>
<path d="M128.163 17.3505C129.089 17.3505 129.839 16.6004 129.839 15.6752C129.839 14.75 129.089 14 128.163 14C127.238 14 126.488 14.75 126.488 15.6752C126.488 16.6004 127.238 17.3505 128.163 17.3505Z" fill="black"></path>
<path d="M146.424 18.8084H143.342V29.2224H146.424V18.8084Z" fill="black"></path>
<path d="M144.887 17.3505C145.812 17.3505 146.562 16.6004 146.562 15.6752C146.562 14.75 145.812 14 144.887 14C143.962 14 143.212 14.75 143.212 15.6752C143.212 16.6004 143.962 17.3505 144.887 17.3505Z" fill="black"></path>
<path d="M27.0377 27.8958H26.5445V29.2302H26.3632V27.8958H25.8701V27.729H27.0377V27.8958Z" fill="#003399"></path>
<path d="M27.2699 27.729H27.531L28.0386 28.9039H28.0459L28.5608 27.729H28.8218V29.2302H28.6405V27.9756H28.6333L28.0966 29.2302H27.9879L27.4512 27.9756H27.444V29.2302H27.2627V27.729H27.2699Z" fill="#003399"></path>
<path d="M19.3725 14.2466H22.8754C23.7094 14.2466 24.3911 14.9211 24.3911 15.7624V19.2653C24.3911 20.6143 22.7593 21.2888 21.8093 20.3387L18.3064 16.8357C17.3419 15.8784 18.0236 14.2466 19.3725 14.2466ZM9.21212 22.6885C7.73992 22.6813 6.55055 21.4919 6.53605 20.0123V15.7551C6.53605 14.9211 5.86159 14.2393 5.02033 14.2393H1.51749C0.168575 14.2393 -0.505885 15.8711 0.444159 16.8212L12.3959 28.7734C13.3532 29.7307 14.9777 29.049 14.9777 27.7V24.197C14.9777 23.363 14.3032 22.6813 13.4619 22.6813L9.21212 22.6885ZM18.6183 22.6885C17.1461 22.6813 15.9567 21.4919 15.9422 20.0123V15.7551C15.9422 14.9211 15.2678 14.2393 14.4265 14.2393H10.9237C9.57474 14.2393 8.90028 15.8711 9.85032 16.8212L21.802 28.7734C22.7593 29.7307 24.3838 29.049 24.3838 27.7V24.197C24.3838 23.363 23.7094 22.6813 22.8681 22.6813L18.6183 22.6885Z" fill="url(#paint0_linear_63_572)"></path>
<defs>
<linearGradient id="paint0_linear_63_572" x1="12.2119" y1="15.7886" x2="20.4654" y2="29.8117" gradientUnits="userSpaceOnUse">
<stop stop-color="#00E5D1"></stop>
<stop offset="0.0802084" stop-color="#01E2D2"></stop>
<stop offset="0.1446" stop-color="#04D8D6"></stop>
<stop offset="0.2036" stop-color="#08C7DC"></stop>
<stop offset="0.2593" stop-color="#0EAFE5"></stop>
<stop offset="0.3127" stop-color="#1790F0"></stop>
<stop offset="0.3637" stop-color="#216BFD"></stop>
<stop offset="0.37" stop-color="#2266FF"></stop>
<stop offset="0.5196" stop-color="#2164FC"></stop>
<stop offset="0.6397" stop-color="#1E5FF2"></stop>
<stop offset="0.7497" stop-color="#1857E1"></stop>
<stop offset="0.8535" stop-color="#104BC9"></stop>
<stop offset="0.9521" stop-color="#063CAB"></stop>
<stop offset="1" stop-color="#003399"></stop>
</linearGradient>
</defs>
</svg>