<svg id="Layer_1" data-name="Layer 1" xmlns="http://www.w3.org/2000/svg" viewBox="0 0 800 800"><path d="M400 0C179.07 0 0 179.09 0 400s179.07 400 400 400 400-179.08 400-400S620.93 0 400 0z" fill="#fff"/><path d="M400 770.47c-3.69 0-7.36-.07-11.01-.17l75.71-208.08h104.19c18.28 0 38.37-14.06 44.61-31.23l82.14-225.63c13.43-36.94-7.72-67.16-47.03-67.16H504.06L382.78 571.49h-.05l-68.76 188.92C150.86 721.62 29.53 575 29.53 400S143.96 86.85 299.97 43.2l-70.96 194.99h-.02L111.04 562.2h78.52l100.3-275.33h59L248.56 562.2h78.48l93.48-256.86c13.45-36.94-7.72-67.16-46.98-67.16h-66l75.81-208.26c5.52-.24 11.06-.39 16.65-.39 204.6 0 370.47 165.87 370.47 370.47S604.6 770.47 400 770.47zM624.15 286.7h-58.98l-82.62 226.67h59l82.62-226.67h-.02z" fill="#024ad8"/></svg>