<svg xmlns="http://www.w3.org/2000/svg" height="48" viewBox="0 -960 960 960" width="48"><path d="m480-103-49-45Q321.232-250.121 250.116-322.561 179-395 137.5-451.5T80-554q-16-46-16-93 0-95.173 65.205-160.086Q194.409-872 289-872q54 0 103.5 25.5T480-772q43-51 91-75.5T671-872q94.591 0 159.795 64.914Q896-742.173 896-647q0 47-16 93t-57.5 102.5Q781-395 709.884-322.561 638.768-250.121 529-148l-49 45Zm0-97q102.236-93.995 168.618-160.998Q715-428 753.5-478.5t54-90.135q15.5-39.636 15.5-78.484Q823-713 780.5-756t-109.275-43q-50.524 0-94.875 32Q532-735 510-683h-61q-21-51-65.85-83.5-44.851-32.5-94.375-32.5Q222-799 179.5-756.286 137-713.571 137-646.684 137-608 152.5-568t54.5 90.5Q246-427 312-360t168 160Zm0-300Z"/></svg>