<svg xmlns="http://www.w3.org/2000/svg" height="48" viewBox="0 -960 960 960" width="48"><path d="M531.193-197Q549-197 561.5-209.693t12.5-30.5Q574-258 561.307-270.5t-30.5-12.5Q513-283 500.5-270.307t-12.5 30.5Q488-222 500.693-209.5t30.5 12.5Zm146 0Q695-197 707.5-209.693t12.5-30.5Q720-258 707.307-270.5t-30.5-12.5Q659-283 646.5-270.307t-12.5 30.5Q634-222 646.693-209.5t30.5 12.5ZM107-431v-393q0-28.725 22.137-50.862Q151.275-897 180-897h600q28.725 0 50.862 22.138Q853-852.725 853-824v393H107Zm73 367q-28.725 0-50.863-22.138Q107-108.275 107-137v-234h746v234q0 28.725-22.138 50.862Q808.725-64 780-64H180Z"/></svg>