<svg xmlns="http://www.w3.org/2000/svg" height="48" viewBox="0 -960 960 960" width="48"><path d="M218-64q-30.75 0-51.875-21.125T145-137v-686q0-30.75 21.125-51.875T218-896h524q30.75 0 51.875 21.125T815-823v686q0 30.75-21.125 51.875T742-64H218Zm262-124q85.945 0 145.473-59.527Q685-307.055 685-393q0-85.945-59.527-145.473Q565.945-598 480-598q-85.945 0-145.473 59.527Q275-478.945 275-393q0 85.945 59.527 145.473Q394.055-188 480-188Zm.354-103q-21.035 0-40.709-8-19.673-8-35.645-22l147-147q17 14.485 24 33.803 7 19.317 7 40.996 0 43.294-29.647 72.747Q522.707-291 480.354-291ZM304.105-704q15.345 0 25.62-10.38T340-740.105q0-15.345-10.38-25.62T303.895-776q-15.345 0-25.62 10.38T268-739.895q0 15.345 10.38 25.62Q288.761-704 304.105-704Zm142 0q15.345 0 25.62-10.38T482-740.105q0-15.345-10.38-25.62Q461.239-776 445.895-776q-15.345 0-25.62 10.38T410-739.895q0 15.345 10.38 25.62Q430.761-704 446.105-704Z"/></svg>