<svg xmlns="http://www.w3.org/2000/svg" height="48" viewBox="0 -960 960 960" width="48"><path d="M424-74q-53.567 0-81.784-32Q314-138 314-179.947q0-26.632 12-53.342Q338-260 364-277q18.796-12.448 32.398-33.224Q410-331 418-369.679q1 .679 2 1.179l1 .5-113 40q-18 6-34.311 10t-33.579 4q-66.287 0-116.199-56.5Q74-427 74-536q0-54.058 31.843-82.529Q137.687-647 179-647q27.587 0 54.228 12.266Q259.87-622.468 277-597q12 20 35 35t58 19q0 2-.5 2t-1.5 1l-39.846-111.532Q322-669 318-685.5q-4-16.5-4-33.1 0-67.4 56.718-117.9Q427.435-887 536-887q53.058 0 81.529 32.651Q646-821.697 647-781q0 27-12.5 54T597-684q-25 16-38 41.5T544-590q-2 1-2.5 0t-1.5-1l112-42q17-6 33.5-10t33.5-4q84.981 0 126.491 69.139Q887-508.722 887-424q0 54.567-34 82.284Q819-314 777.438-314 750-314 725-326q-25-12-41-38-12.69-19.245-33.845-33.122Q629-411 591-419h-.5q.5 0 .5-1l41 112q6 16.289 10.5 31.144Q647-262 647-245.395 647-178 590.5-126T424-74Zm56-353q22 0 38-15.25T534-480q0-22-16-38t-38-16q-22 0-37.5 16T427-480q0 22 15.25 37.5T480-427Z"/></svg>