<svg xmlns="http://www.w3.org/2000/svg" height="48" viewBox="0 -960 960 960" width="48"><path d="M480.176-264q73.324 0 123.074-49.875T653-437q0-73.5-49.927-123.25Q553.147-610 479.824-610q-74.324 0-123.574 49.75T307-436.5q0 73 49.426 122.75Q405.853-264 480.176-264Zm-.458-73Q437-337 408.5-365.437q-28.5-28.436-28.5-71Q380-480 408.577-508.5q28.578-28.5 71.5-28.5Q522-537 551-508.859t29 72Q580-394 551.318-365.5q-28.681 28.5-71.6 28.5ZM137-104q-28.725 0-50.862-22.137Q64-148.275 64-177v-519q0-28.362 22.138-50.681Q108.275-769 137-769h145l77-87h243l77 87h144q28.362 0 50.681 22.319T896-696v519q0 28.725-22.319 50.863Q851.362-104 823-104H137Z"/></svg>