<svg xmlns="http://www.w3.org/2000/svg" height="48" viewBox="0 -960 960 960" width="48"><path d="M277.752-71q-32.277 0-55.014-22.985Q200-116.971 200-149.248t22.985-55.014Q245.971-227 278.248-227t55.015 22.985Q356-181.029 356-148.752t-22.985 55.015Q310.029-71 277.752-71Zm412 0q-32.277 0-55.015-22.985Q612-116.971 612-149.248t22.985-55.014Q657.971-227 690.248-227t55.015 22.985Q768-181.029 768-148.752t-22.985 55.015Q722.029-71 689.752-71ZM197-815h616.074q22.474 0 34.2 21Q859-773 847-752L702-492q-11.057 20.095-30.48 33.048Q652.097-446 629-446H320l-50 92h499v73H268q-46 0-65.5-31.5t.5-69.5l62-116-152-323H32v-73h128l37 79Z"/></svg>