<svg xmlns="http://www.w3.org/2000/svg" height="48" viewBox="0 -960 960 960" width="48"><path d="M480.118-318Q556-318 609-371.118q53-53.117 53-129Q662-576 608.882-629q-53.117-53-129-53Q404-682 351-628.882q-53 53.117-53 129Q298-424 351.118-371q53.117 53 129 53Zm-.471-69Q433-387 400-420.353q-33-33.353-33-80T400.353-580q33.353-33 80-33T560-579.647q33 33.353 33 80T559.647-420q-33.353 33-80 33ZM480-185q-152 0-275.5-87T22-500q59-141 182.5-228T480-815q152 0 275.5 87T938-500q-59 141-182.5 228T480-185Z"/></svg>