<svg xmlns="http://www.w3.org/2000/svg" xml:space="preserve" width="335.49481" height="138.494" viewBox="0 0 335.49481 138.494"><path d="M0 0v-9.724h12.302c.834 0 1.473-.24 1.86-.708.384-.469.572-1.057.572-1.708 0-.639-.188-1.173-.572-1.647-.387-.469-1.026-.706-1.86-.706h-41.568c-.893 0-1.469.237-1.793.706-.382.474-.511 1.008-.511 1.647 0 .651.129 1.239.511 1.708.324.468.9.708 1.793.708h11.664V0h5.51v-9.724h6.772V0Z" style="fill:#7b797a;fill-opacity:1;fill-rule:nonzero;stroke:none" transform="matrix(1.33333 0 0 -1.33333 257.7 85.41)"/><path d="M0 0c-4.106 0-7.431 3.057-7.431 6.821 0 3.773 3.325 6.827 7.431 6.827 4.102 0 7.431-3.054 7.431-6.827C7.431 3.057 4.102 0 0 0m0 18.436c-6.985 0-12.644-5.2-12.644-11.615C-12.644.41-6.985-4.79 0-4.79S12.642.41 12.642 6.821c0 6.415-5.657 11.615-12.642 11.615" style="fill:#7b797a;fill-opacity:1;fill-rule:nonzero;stroke:none" transform="matrix(1.33333 0 0 -1.33333 246.358 132.107)"/><path d="M0 0c-4.106 0-7.431 3.059-7.431 6.828 0 3.767 3.325 6.824 7.431 6.824 4.102 0 7.431-3.057 7.431-6.824C7.431 3.059 4.102 0 0 0m0 18.44c-6.985 0-12.644-5.198-12.644-11.612C-12.644.415-6.985-4.786 0-4.786S12.642.415 12.642 6.828C12.642 13.242 6.985 18.44 0 18.44" style="fill:#7b797a;fill-opacity:1;fill-rule:nonzero;stroke:none" transform="matrix(1.33333 0 0 -1.33333 246.358 85.735)"/><path d="M0 0c-.359.437-.956.653-1.666.653H-7.47v15.235c-.02 1.43-1.111 2.239-2.509 2.381-.011.001-.19.014-.272.015-.113-.001-.218-.01-.325-.017-1.389-.153-2.47-.957-2.487-2.379V-19.17c.017-1.425 1.097-2.228 2.486-2.383.106-.006.213-.014.326-.014.079 0 .261.012.273.012 1.398.144 2.488.952 2.508 2.385v15.19h5.804c.71 0 1.307.221 1.666.766.293.439.473.979.473 1.526C.473-1.032.293-.436 0 0" style="fill:#7b797a;fill-opacity:1;fill-rule:nonzero;stroke:none" transform="matrix(1.33333 0 0 -1.33333 329.632 85.537)"/><path d="M0 0c0 .092-.012.181-.019.269-.109.893-.555 1.617-1.319 1.878-.089.028-.179.059-.277.077-.026.004-.052.004-.077.008a3.163 3.163 0 0 1-.358.029c-.031.001-.057.008-.088.008h-15.485c-2.567 0-2.374 1.596-2.374 1.596v9.814c-.032 1.295-.997 2.045-2.248 2.22a5.54 5.54 0 0 1-.54.03 5.26 5.26 0 0 0-.175-.009c-1.324-.147-2.357-.912-2.377-2.272V2.214c0-.762.122-1.471.472-2.074.303-.547.654-1.036 1.13-1.362.417-.38.95-.656 1.6-.869.597-.106 1.188-.219 1.899-.219h18.098l.002.001c.525 0 .981.149 1.329.401.166.136.313.298.429.49l.04.072c.028.055.055.111.082.168.042.099.08.198.113.299.008.03.02.059.028.088.024.083.042.168.058.251.015.065.024.13.034.194.011.107.024.212.024.319L0 0" style="fill:#7b797a;fill-opacity:1;fill-rule:nonzero;stroke:none" transform="matrix(1.33333 0 0 -1.33333 324.465 127.895)"/><path d="M0 0c-3.225 2.128-5.763 4.563-7.545 7.295-1.845 2.689-2.701 5.63-2.701 8.773v3.023c-.043 1.272-.903 2.063-2.082 2.343h-.003a4.303 4.303 0 0 1-.452.075c-.096.01-.193.025-.294.025-.014 0-.027 0-.039.003-.015-.003-.03-.003-.046-.003h-.019c-.052 0-.103-.004-.156-.006a3.146 3.146 0 0 1-.214-.019c-1.397-.176-2.475-.988-2.527-2.415 0-.021-.006-.04-.008-.062v-2.351h.008v-.613c0-3.143-.859-6.084-2.703-8.773-1.782-2.732-4.318-5.167-7.542-7.295-.611-.411-.866-.962-.866-1.469 0-.556.287-1.06.748-1.567A2.562 2.562 0 0 1-24.6-3.8c.58 0 1.014.167 1.442.407 2.305 1.42 4.205 2.992 5.819 4.812 1.668 1.726 3.2 3.649 4.177 5.676.979-2.027 2.507-3.95 4.178-5.676 1.615-1.82 3.512-3.392 5.818-4.812A2.617 2.617 0 0 1-1.724-3.8c.687 0 1.324.253 1.84.764.462.507.746 1.011.746 1.567C.862-.962.654-.402 0 0" style="fill:#7b797a;fill-opacity:1;fill-rule:nonzero;stroke:none" transform="matrix(1.33333 0 0 -1.33333 306.064 92.158)"/><path d="M0 0c0 1.115.445 1.836 1.16 2.42.752.616 1.477.808 2.686.808h6.552c.855 0 1.133.668 1.133 1.247v4.007c0 .31-.052.578-.102.803-.097.174-.252.31-.354.396-.199.048-.352.093-.502.093H1.778c-.605 0-1.055.132-1.357.488-.353.312-.505.709-.505 1.245 0 .53.152.976.505 1.337.302.356.752.534 1.357.534h8.998c.805 0 1.56-.044 2.214-.091.604-.087 1.157-.22 1.658-.443a3.662 3.662 0 0 0 1.159-.892c.255-.445.402-1.02.402-1.737V2.698c0-1.115-.402-1.915-1.156-2.449-.803-.534-1.81-.803-3.02-.803H4.377v-5.651c0-.578.049-.98.152-1.197.097-.271.553-.357 1.456-.357h15.53c.605 0 1.06-.179 1.408-.445.302-.357.456-.76.456-1.294 0-.577-.154-1.023-.456-1.38-.348-.4-.803-.576-1.362-.576H4.277c-1.212 0-2.216.265-3.021.8-.854.486-1.259 1.336-1.259 2.54z" style="fill:#7b797a;fill-opacity:1;fill-rule:nonzero;stroke:none" transform="matrix(1.33333 0 0 -1.33333 50.766 84.18)"/><path d="M239.858 482.29h-7.189v3.434h7.189z" style="fill:#7b797a;fill-opacity:1;fill-rule:nonzero;stroke:none;stroke-width:.999998" transform="matrix(1.33333 0 0 -1.33333 -227.689 729.482)"/><path d="M0 0a.494.494 0 0 0-.495-.494H-11a.495.495 0 0 0-.496.494v10.821c0 .273.223.495.496.495H-.495A.495.495 0 0 0 0 10.821Zm3.528 14.299c-.653.623-1.509.936-2.563.936H-12.44c-1.055 0-1.91-.313-2.562-.936-.704-.624-1.042-1.428-1.042-2.403V-.716c0-.975.378-1.78 1.082-2.4.652-.623 1.508-.936 2.561-.936H.926c1.053 0 1.909.313 2.563.936a3.086 3.086 0 0 1 1.081 2.4v12.612c0 .975-.338 1.779-1.042 2.403" style="fill:#7b797a;fill-opacity:1;fill-rule:nonzero;stroke:none" transform="matrix(1.33333 0 0 -1.33333 21.392 86.473)"/><path d="M0 0c-2.813 1.869-5.031 4.007-6.589 6.408-1.611 2.36-2.36 4.943-2.36 7.704v5.073c0 .535-.262.933-.752 1.203-.543.219-1.087.462-1.738.462l-.057-.002-.057.002c-.651 0-1.196-.243-1.739-.462-.49-.27-.752-.668-.752-1.203v-5.073c0-2.761-.747-5.344-2.36-7.704-1.557-2.401-3.773-4.539-6.588-6.408-.547-.333-.756-.846-.756-1.291 0-.488.248-.93.652-1.375a2.233 2.233 0 0 1 1.609-.67c.507 0 .877.141 1.26.357 2.013 1.248 3.673 2.626 5.082 4.224 1.458 1.516 2.794 3.205 3.649 4.987.854-1.782 2.189-3.471 3.648-4.987C-6.437-.353-4.78-1.731-2.764-2.979c.398-.222.751-.357 1.259-.357.601 0 1.156.221 1.609.67.403.445.651.887.651 1.375C.755-.846.542-.378 0 0" style="fill:#7b797a;fill-opacity:1;fill-rule:nonzero;stroke:none" transform="matrix(1.33333 0 0 -1.33333 184.896 91.958)"/><path d="M0 0a3.206 3.206 0 1 0 0 6.412A3.206 3.206 0 0 0 0 0m0 10.144a6.938 6.938 0 0 1-6.939-6.939c0-2.992 2.546-4.965 2.546-4.965 1.101-.854 2.033-2.691 2.033-4.085V-16.55c.016-1.167.902-1.827 2.04-1.948.055-.002.214-.013.24-.013.089 0 .167.009.25.013 1.139.123 2.028.783 2.041 1.95v10.665c0 1.393.973 3.219 2.085 4.058 0 0 2.642 1.994 2.642 5.03A6.937 6.937 0 0 1 0 10.144" style="fill:#f18f31;fill-opacity:1;fill-rule:nonzero;stroke:none" transform="matrix(1.33333 0 0 -1.33333 41.577 30.602)"/><path d="M0 0a3.204 3.204 0 0 0-3.205 3.205 3.205 3.205 0 1 0 6.41 0A3.206 3.206 0 0 0 0 0m0 10.144a6.94 6.94 0 0 1-6.94-6.939c0-2.992 2.547-4.965 2.547-4.965 1.102-.854 2.034-2.691 2.034-4.085V-16.55c.011-1.167.901-1.827 2.04-1.948.053-.002.213-.013.24-.013.087 0 .166.009.25.013 1.138.123 2.027.783 2.039 1.95v10.665c0 1.393.975 3.219 2.085 4.058 0 0 2.644 1.994 2.644 5.03A6.939 6.939 0 0 1 0 10.144" style="fill:#a8cf5e;fill-opacity:1;fill-rule:nonzero;stroke:none" transform="matrix(1.33333 0 0 -1.33333 195.772 30.602)"/><path d="M0 0a3.206 3.206 0 1 0 .002 6.412A3.206 3.206 0 0 0 0 0m0 10.145a6.937 6.937 0 0 1-6.938-6.939c0-2.992 2.547-4.965 2.547-4.965 1.1-.854 2.032-2.692 2.032-4.084v-11.004c.015-1.168.902-1.826 2.041-1.946.055-.004.214-.014.239-.014.09 0 .168.007.25.014 1.14.12 2.026.78 2.04 1.947v10.963c0 1.393.976 3.22 2.087 4.059 0 0 2.642 1.994 2.642 5.03A6.938 6.938 0 0 1 0 10.145" style="fill:#f18f31;fill-opacity:1;fill-rule:nonzero;stroke:none" transform="matrix(1.33333 0 0 -1.33333 127.843 36.044)"/><path d="M0 0a3.206 3.206 0 1 0-.001 6.413A3.206 3.206 0 0 0 0 0m0 10.144a6.937 6.937 0 0 1-6.939-6.938c0-2.992 2.547-4.967 2.547-4.967 1.102-.852 2.034-2.689 2.034-4.082v.044-.935c.013-1.167.901-1.828 2.039-1.949.054-.002.214-.012.24-.012.088 0 .166.008.249.012 1.14.123 2.028.783 2.041 1.951v.933-.084c0 1.393.973 3.219 2.085 4.057 0 0 2.643 1.996 2.643 5.032A6.938 6.938 0 0 1 0 10.144" style="fill:#a8cf5e;fill-opacity:1;fill-rule:nonzero;stroke:none" transform="matrix(1.33333 0 0 -1.33333 94.761 43.69)"/><path d="M0 0a3.207 3.207 0 0 0 0 6.412A3.206 3.206 0 0 0 0 0m0 10.146a6.94 6.94 0 0 1-6.939-6.94c0-2.993 2.546-4.966 2.546-4.966 1.101-.852 2.033-2.689 2.033-4.083v-23.512c.013-1.167.902-1.828 2.041-1.949.052-.002.213-.012.239-.012.089 0 .167.008.249.012 1.139.123 2.029.783 2.04 1.95v23.472c0 1.393.976 3.218 2.087 4.058 0 0 2.643 1.995 2.643 5.03A6.939 6.939 0 0 1 0 10.146" style="fill:#00b5e3;fill-opacity:1;fill-rule:nonzero;stroke:none" transform="matrix(1.33333 0 0 -1.33333 81.218 13.528)"/><path d="M0 0c-.008 0-.154.013-.222.014C-.313.013-.4.004-.488 0-1.622-.127-2.504-.783-2.52-1.946v-37.512c.016-1.163.898-1.818 2.032-1.944.088-.006.175-.014.266-.014.065 0 .214.012.222.012 1.145.117 2.036.777 2.05 1.946v37.512C2.036-.777 1.144-.117 0 0" style="fill:#7b797a;fill-opacity:1;fill-rule:nonzero;stroke:none" transform="matrix(1.33333 0 0 -1.33333 41.79 61.188)"/><path d="M0 0c-.009 0-.154.013-.223.014C-.313.013-.4.004-.491 0c-1.132-.127-2.015-.783-2.03-1.946v-37.512c.015-1.163.898-1.818 2.03-1.944.09-.006.177-.014.268-.014.065 0 .213.012.223.012 1.142.117 2.036.777 2.051 1.946v37.512C2.036-.777 1.142-.117 0 0" style="fill:#7b797a;fill-opacity:1;fill-rule:nonzero;stroke:none" transform="matrix(1.33333 0 0 -1.33333 195.978 61.188)"/><path d="M0 0c-.009 0-.156.013-.223.014C-.316.013-.402.004-.491 0c-1.133-.127-2.014-.783-2.03-1.946v-37.512c.016-1.163.897-1.818 2.03-1.944.089-.006.174-.014.268-.014.064 0 .212.012.223.012 1.142.117 2.034.777 2.049 1.946v37.512C2.034-.777 1.142-.117 0 0" style="fill:#7b797a;fill-opacity:1;fill-rule:nonzero;stroke:none" transform="matrix(1.33333 0 0 -1.33333 94.98 61.188)"/><path d="M0 0c-.008 0-.154.013-.221.014C-.314.013-.399.004-.489 0c-1.133-.127-2.017-.783-2.03-1.946v-46.593c.013-1.165.897-1.82 2.03-1.946.089-.004.175-.014.268-.014.064 0 .212.011.222.013 1.143.117 2.035.776 2.049 1.947v46.593C2.036-.777 1.144-.117 0 0" style="fill:#7b797a;fill-opacity:1;fill-rule:nonzero;stroke:none" transform="matrix(1.33333 0 0 -1.33333 81.436 61.188)"/><path d="M0 0c-.094.923-.628 1.644-1.573 1.656h-16.623.002v8.676h-4.571V1.656h.003-16.348c-.945-.012-1.479-.733-1.573-1.656 0-.006-.009-.126-.01-.179.001-.076.007-.144.011-.216.101-.916.631-1.629 1.572-1.642h37.537c.94.013 1.471.726 1.572 1.642.003.072.01.14.01.216C.009-.127.001-.008 0 0" style="fill:#7b797a;fill-opacity:1;fill-rule:nonzero;stroke:none" transform="matrix(1.33333 0 0 -1.33333 155.05 101.52)"/><path d="M0 0c-.109.887-.619 1.572-1.518 1.61-.055.003-.152.015-.212.015l-19.823-.012a.495.495 0 0 0-.495.494v9.626c0 .273.222.494.495.494l19.263.001c.064 0 .123.003.183.004.911.042 1.428.75 1.52 1.659a.875.875 0 0 1 .006.089c0 .124-.006.244-.016.362-.101.77-.51 1.388-1.215 1.549a3.413 3.413 0 0 1-.487.042h-20.692c-1.056 0-1.911-.313-2.564-.935-.703-.623-1.042-1.427-1.042-2.402V1.221c0-.976.379-1.779 1.083-2.4.652-.623 1.507-.936 2.562-.936h21.173s.442-.01.856.185l.077.036c.056.031.111.068.164.108.017.013.036.024.055.036.001.005.004.006.008.007l-.003.002c.36.297.571.769.629 1.316 0 .005.005.069.006.123A4.2 4.2 0 0 1 0 0" style="fill:#7b797a;fill-opacity:1;fill-rule:nonzero;stroke:none" transform="matrix(1.33333 0 0 -1.33333 145.648 87.468)"/><path d="m0 0 .497 2.83h-2.9L-2.902 0h-.946l1.111 6.306h.948l-.451-2.549H.663l.446 2.549h.949L.946 0Z" style="fill:#7b797a;fill-opacity:1;fill-rule:nonzero;stroke:none" transform="matrix(1.33333 0 0 -1.33333 220.64 47.761)"/><path d="M0 0c-.23.128-.541.208-1.046.208-.595 0-1.019-.27-1.097-.703-.081-.468.162-.783.773-.783.494 0 .983.305 1.25.602zm-.355-2.017.08.469c-.381-.326-.881-.568-1.398-.568-.764 0-1.561.432-1.356 1.595C-2.845.533-1.948 1.01-.876 1.01c.439 0 .781-.064 1.022-.181l.061.351c.091.515-.171.803-.75.803-.488 0-.882-.091-1.289-.298l-.235.702c.501.281 1.03.424 1.697.424 1.055 0 1.683-.513 1.495-1.585l-.57-3.243z" style="fill:#7b797a;fill-opacity:1;fill-rule:nonzero;stroke:none" transform="matrix(1.33333 0 0 -1.33333 228.24 45.072)"/><path d="M0 0c-.178.109-.376.171-.68.171-.589 0-1.002-.413-1.143-1.216L-2.3-3.747h-.929l.834 4.73h.928l-.079-.451c.272.315.71.549 1.178.549.38 0 .6-.071.767-.198z" style="fill:#7b797a;fill-opacity:1;fill-rule:nonzero;stroke:none" transform="matrix(1.33333 0 0 -1.33333 235.3 42.765)"/><path d="m0 0 .472 2.677C.64 3.63.402 3.974-.21 3.974c-.622 0-.988-.443-1.122-1.209L-1.82 0h-.929l.472 2.677c.169.953-.07 1.297-.681 1.297-.622 0-.987-.443-1.122-1.209L-4.569 0h-.929l.835 4.73h.928l-.078-.451c.294.342.736.549 1.222.549.641 0 1.002-.242 1.174-.693.419.423.835.693 1.574.693 1.099 0 1.495-.72 1.249-2.118L.928 0Z" style="fill:#7b797a;fill-opacity:1;fill-rule:nonzero;stroke:none" transform="matrix(1.33333 0 0 -1.33333 243.587 47.761)"/><path d="M0 0c-.702 0-1.244-.62-1.408-1.557-.183-1.036.194-1.603.898-1.603.7 0 1.286.711 1.437 1.576C1.099-.62.749 0 0 0m-.702-4.043c-1.19 0-1.909.981-1.649 2.459C-2.077-.035-.998.884.191.884c1.207 0 1.94-.963 1.679-2.441C1.594-3.125.514-4.043-.702-4.043" style="fill:#7b797a;fill-opacity:1;fill-rule:nonzero;stroke:none" transform="matrix(1.33333 0 0 -1.33333 250.232 42.502)"/><path d="m0 0 .472 2.677C.64 3.63.34 3.974-.273 3.974c-.622 0-1.049-.443-1.185-1.209L-1.946 0h-.927l.833 4.73h.928l-.078-.451c.294.342.798.549 1.285.549 1.099 0 1.558-.72 1.31-2.118L.927 0Z" style="fill:#7b797a;fill-opacity:1;fill-rule:nonzero;stroke:none" transform="matrix(1.33333 0 0 -1.33333 257.763 47.761)"/><path d="M0 0a.49.49 0 0 0-.498.595.753.753 0 0 0 .709.604C.535 1.199.759.927.7.595.642.271.325 0 0 0m-1.41-5.341.834 4.73h.928l-.834-4.73z" style="fill:#7b797a;fill-opacity:1;fill-rule:nonzero;stroke:none" transform="matrix(1.33333 0 0 -1.33333 262.96 40.64)"/><path d="M0 0c-.703 0-1.243-.62-1.409-1.557-.184-1.036.197-1.603.897-1.603.702 0 1.286.711 1.444 1.576C1.101-.62.749 0 0 0m-.703-4.043c-1.19 0-1.908.981-1.647 2.459C-2.077-.035-.996.884.193.884c1.206 0 1.937-.963 1.678-2.441C1.594-3.125.513-4.043-.703-4.043" style="fill:#7b797a;fill-opacity:1;fill-rule:nonzero;stroke:none" transform="matrix(1.33333 0 0 -1.33333 267.832 42.502)"/><path d="m0 0 .078.45C-.217.108-.721-.099-1.207-.099c-1.101 0-1.559.72-1.311 2.116l.477 2.713h.928l-.471-2.676c-.169-.955.131-1.298.745-1.298.62 0 1.049.443 1.185 1.208L.834 4.73h.929L.929 0Z" style="fill:#7b797a;fill-opacity:1;fill-rule:nonzero;stroke:none" transform="matrix(1.33333 0 0 -1.33333 275.317 47.761)"/><path d="M0 0c-.638 0-1.289.252-1.704.604l.548.702A2.108 2.108 0 0 1 .14.838c.585 0 .895.188.957.523.064.36-.323.529-.96.792-.95.395-1.258.738-1.125 1.486.148.846.892 1.288 1.84 1.288.595 0 1.142-.216 1.511-.524l-.531-.71c-.34.271-.706.406-1.153.406-.452 0-.683-.181-.725-.434-.042-.233.091-.405.751-.684.983-.404 1.473-.694 1.317-1.585C1.838.352.929 0 0 0" style="fill:#7b797a;fill-opacity:1;fill-rule:nonzero;stroke:none" transform="matrix(1.33333 0 0 -1.33333 280.638 47.893)"/><path d="m0 0-.442-2.496h-.947L-.947 0l-1.589 3.81h1.108l.674-1.738c.149-.388.361-1.019.428-1.252.148.233.572.837.868 1.242l1.3 1.748h1.091z" style="fill:#7b797a;fill-opacity:1;fill-rule:nonzero;stroke:none" transform="matrix(1.33333 0 0 -1.33333 292.784 44.433)"/><path d="M0 0c-.703 0-1.243-.62-1.41-1.557-.182-1.036.196-1.603.899-1.603.701 0 1.285.711 1.44 1.576C1.098-.62.748 0 0 0m-.703-4.043c-1.191 0-1.908.981-1.649 2.459C-2.079-.035-.996.884.192.884 1.4.884 2.131-.079 1.87-1.557 1.595-3.125.511-4.043-.703-4.043" style="fill:#7b797a;fill-opacity:1;fill-rule:nonzero;stroke:none" transform="matrix(1.33333 0 0 -1.33333 298.803 42.502)"/><path d="m0 0 .472 2.677c.169.953-.131 1.297-.743 1.297-.622 0-1.052-.443-1.187-1.209L-1.945 0h-.928l.834 4.73h.928l-.08-.451c.295.342.799.549 1.287.549 1.097 0 1.556-.72 1.31-2.118L.929 0Z" style="fill:#7b797a;fill-opacity:1;fill-rule:nonzero;stroke:none" transform="matrix(1.33333 0 0 -1.33333 306.333 47.761)"/><path d="M0 0c-.157.28-.53.623-.997.623-.668 0-1.117-.505-1.294-1.505-.21-1.19.077-1.712.761-1.712.442 0 .88.297 1.179.603zm-2.223-5.089-.188.703c1.341.063 1.694.423 1.867 1.405l.014.08c-.397-.315-.826-.548-1.323-.548-1.008 0-1.69.738-1.371 2.54C-2.938.712-1.91 1.478-.938 1.478A1.35 1.35 0 0 0 .147.938l.078.441h.928l-.755-4.28C.144-4.342-.5-5.036-2.223-5.089" style="fill:#7b797a;fill-opacity:1;fill-rule:nonzero;stroke:none" transform="matrix(1.33333 0 0 -1.33333 314.186 43.294)"/><path d="M0 0c-.64 0-1.29.252-1.704.604l.547.702A2.115 2.115 0 0 1 .14.838c.585 0 .897.188.957.523.063.36-.322.529-.96.792-.95.395-1.257.738-1.126 1.486.149.846.895 1.288 1.842 1.288.593 0 1.14-.216 1.509-.524l-.53-.71a1.764 1.764 0 0 1-1.154.406c-.452 0-.681-.181-.724-.434-.043-.233.09-.405.753-.684.982-.404 1.471-.694 1.314-1.585C1.838.352.929 0 0 0" style="fill:#7b797a;fill-opacity:1;fill-rule:nonzero;stroke:none" transform="matrix(1.33333 0 0 -1.33333 318.697 47.893)"/><path d="M0 0c-.228.128-.541.208-1.045.208-.592 0-1.02-.27-1.096-.703-.082-.468.159-.783.771-.783.497 0 .985.305 1.251.602zm-.356-2.017.084.469c-.381-.326-.883-.568-1.399-.568-.765 0-1.563.432-1.358 1.595C-2.843.533-1.947 1.01-.875 1.01c.44 0 .782-.064 1.021-.181l.061.351c.094.515-.172.803-.748.803-.486 0-.882-.091-1.287-.298l-.237.702c.5.281 1.03.424 1.695.424 1.056 0 1.685-.513 1.497-1.585L.555-2.017Z" style="fill:#7b797a;fill-opacity:1;fill-rule:nonzero;stroke:none" transform="matrix(1.33333 0 0 -1.33333 326.944 45.072)"/><path d="m0 0 .474 2.677C.64 3.63.342 3.974-.273 3.974c-.622 0-1.05-.443-1.186-1.209L-1.945 0h-.93l.835 4.73h.928l-.079-.451c.295.342.799.549 1.288.549 1.097 0 1.556-.72 1.308-2.118L.93 0Z" style="fill:#7b797a;fill-opacity:1;fill-rule:nonzero;stroke:none" transform="matrix(1.33333 0 0 -1.33333 333.534 47.761)"/></svg>