<svg xmlns="http://www.w3.org/2000/svg" xml:space="preserve" width="493.1842" height="200" viewBox="0 0 493.1842 200"><path d="m440.668 709.596-12.31 15.61-15.7-12.377 17.428-2.062.01.08z" style="fill:#00b3ed;fill-opacity:1;fill-rule:nonzero;stroke:none;stroke-width:1.20569" transform="matrix(1.33333 0 0 -1.33333 -192.327 987.439)"/><path d="M441.562 709.491a2.598 2.598 0 0 0 2.88 2.237l.088.767 1.262 10.653-17.434 2.058 12.31-15.61z" style="fill:#cfebfb;fill-opacity:1;fill-rule:nonzero;stroke:none;stroke-width:1.20569" transform="matrix(1.33333 0 0 -1.33333 -192.327 987.439)"/><path d="m447.851 740.58-3.32-28.085 15.703 12.382z" style="fill:#f097a9;fill-opacity:1;fill-rule:nonzero;stroke:none;stroke-width:1.20569" transform="matrix(1.33333 0 0 -1.33333 -192.327 987.439)"/><path d="M444.441 711.728a2.597 2.597 0 0 0 2.278-2.845l11.465-1.359 2.05 17.353-15.703-12.382z" style="fill:#f8cad5;fill-opacity:1;fill-rule:nonzero;stroke:none;stroke-width:1.20569" transform="matrix(1.33333 0 0 -1.33333 -192.327 987.439)"/><path d="m446.719 708.883.81-.098 12.381-15.702 15.702 12.38-17.429 2.06z" style="fill:#00b3ed;fill-opacity:1;fill-rule:nonzero;stroke:none;stroke-width:1.20569" transform="matrix(1.33333 0 0 -1.33333 -192.327 987.439)"/><path d="m447.53 708.785-.812.098c-.002-.016.004-.028 0-.041a2.598 2.598 0 0 0-2.888-2.278l-.09-.768-1.26-10.651 12.06-1.43 3.886-.457 1.485-.175z" style="fill:#cfebfb;fill-opacity:1;fill-rule:nonzero;stroke:none;stroke-width:1.20569" transform="matrix(1.33333 0 0 -1.33333 -192.327 987.439)"/><path d="m428.037 693.416 12.383-15.703 2.06 17.432 1.26 10.652z" style="fill:#f097a9;fill-opacity:1;fill-rule:nonzero;stroke:none;stroke-width:1.20569" transform="matrix(1.33333 0 0 -1.33333 -192.327 987.439)"/><path d="m443.74 705.797.09.768a2.598 2.598 0 0 0-2.277 2.886.133.133 0 0 1 .008.04l-.893.105-10.572 1.25-.01-.08-2.05-17.35z" style="fill:#f8cad5;fill-opacity:1;fill-rule:nonzero;stroke:none;stroke-width:1.20569" transform="matrix(1.33333 0 0 -1.33333 -192.327 987.439)"/><path d="M444.441 711.728a2.598 2.598 0 0 1-2.879-2.236c0-.015-.006-.029-.01-.041a2.6 2.6 0 0 1 2.278-2.887 2.598 2.598 0 0 1 2.889 2.277c.002.013-.002.026 0 .042a2.597 2.597 0 0 1-2.278 2.845" style="fill:#fff;fill-opacity:1;fill-rule:nonzero;stroke:none;stroke-width:1.20569" transform="matrix(1.33333 0 0 -1.33333 -192.327 987.439)"/><path d="M170.761 678.75h3.515v11.03c0 1.494 1.276 2.195 2.594 2.195 1.317 0 2.59-.7 2.59-2.196v-34.006c0-1.493-1.273-2.196-2.59-2.196-1.318 0-2.594.703-2.594 2.196v18.235h-3.515v-18.215c0-1.494-1.274-2.199-2.592-2.199-1.273 0-2.547.705-2.547 2.2v33.545c0 1.495 1.274 2.197 2.547 2.197 1.318 0 2.592-.702 2.592-2.197zm-18.935 8.526c0 1.627 1.362 2.372 2.812 2.372 1.45 0 2.811-.745 2.811-2.372v-6.11c0-3.511.703-5.84 2.55-8.127 1.36-1.712 2.81-3.294 3.82-4.393.968-1.051.66-2.678-.263-3.513-.966-.882-2.549-.97-3.514.043a78.202 78.202 0 0 0-2.988 3.382c-1.8 2.152-2.196 3.12-2.373 4h-.043c-.176-1.012-.57-2.02-2.416-4.217-1.054-1.276-2.284-2.636-3.56-3.998-.967-1.013-2.635-.837-3.514.042-1.012.966-1.273 2.548-.263 3.647 1.58 1.713 3.031 3.295 4.392 5.007 1.846 2.286 2.55 4.616 2.55 8.127zM183.86 657.179c-1.363 0-1.978 1.098-1.978 2.374 0 1.274.615 2.374 1.977 2.374h13.795v5.928h-7.162c-2.81 0-3.734.88-3.734 3.648v5.93c0 2.768.923 3.645 3.734 3.645h17.048c.747 0 1.01.267 1.01 1.014v1.843c0 .748-.263 1.014-1.01 1.014h-18.892c-1.362 0-1.977 1.097-1.977 2.37 0 1.274.615 2.374 1.977 2.374h21.704c2.812 0 3.734-.879 3.734-3.647v-5.888c0-2.77-.922-3.648-3.734-3.648h-17.046c-.748 0-1.012-.264-1.012-1.01v-1.889c0-.745.264-1.009 1.012-1.009h19.682c1.362 0 1.976-1.1 1.976-2.375 0-1.272-.614-2.372-1.976-2.372h-9.711v-5.928h13.795c1.363 0 1.979-1.1 1.979-2.374 0-1.276-.616-2.374-1.979-2.374zM237.816 686.351c-5.845 0-8.172-1.402-8.172-3.601 0-2.197 2.327-3.605 8.172-3.605 5.841 0 8.17 1.408 8.17 3.605 0 2.199-2.329 3.601-8.17 3.601m0 4.614c8.565 0 13.75-2.635 13.75-8.215 0-5.577-5.185-8.216-13.75-8.216-8.568 0-13.752 2.64-13.752 8.216 0 5.58 5.184 8.215 13.752 8.215m12.564-34.84c1.361 0 1.978-1.098 1.978-2.372 0-1.273-.617-2.373-1.978-2.373h-22.67c-2.812 0-3.736.88-3.736 3.647v6.808c0 1.628 1.364 2.374 2.858 2.374 1.45 0 2.812-.746 2.812-2.374v-4.698c0-.747.262-1.013 1.01-1.013zm-29.173 10.982c-1.362 0-1.977 1.1-1.977 2.33 0 1.273.615 2.372 1.977 2.372h33.215c1.362 0 1.977-1.1 1.977-2.371 0-1.231-.615-2.33-1.977-2.33h-13.224v-5.18c0-1.496-1.231-2.156-2.813-2.156-1.537 0-2.767.66-2.767 2.155v5.18zM298.846 664.385c0-1.624-1.362-2.373-2.767-2.373-1.407 0-2.77.749-2.77 2.373v7.997h-3.866c-1.361 0-1.931 1.099-1.931 2.417 0 1.274.57 2.374 1.931 2.374h3.867v3.993h-3.867c-1.361 0-1.931 1.1-1.931 2.418 0 1.275.57 2.372 1.931 2.372h3.867v3.646c0 1.63 1.362 2.373 2.77 2.373 1.404 0 2.766-.743 2.766-2.373zm-19.551 9.226c.746 0 1.011.263 1.011 1.012v3.689h-7.997v-3.69c0-.748.263-1.011 1.01-1.011zm-3.339-22.055c-2.811 0-3.734.88-3.734 3.648v8.04c0 1.624 1.361 2.37 2.856 2.37 1.447 0 2.811-.746 2.811-2.37v-5.89c0-.746.264-1.009 1.01-1.009h18.937c1.362 0 1.976-1.1 1.976-2.415 0-1.276-.614-2.374-1.976-2.374zm9.841 21.09c0-2.77-.922-3.648-3.734-3.648h-11.51c-2.812 0-3.736.879-3.736 3.647v14.894c0 1.537 1.363 2.285 2.725 2.285 1.406 0 2.767-.748 2.767-2.285v-4.613h7.997v4.613c0 1.537 1.36 2.285 2.723 2.285 1.406 0 2.768-.748 2.768-2.285zM334.789 677.698h3.559c1.404 0 2.02-1.097 2.02-2.417 0-1.364-.616-2.46-2.02-2.46h-3.56v-16.914c0-1.582-1.317-2.33-2.768-2.33-1.449 0-2.768.748-2.768 2.33v33.74c0 1.585 1.32 2.328 2.768 2.328 1.45 0 2.769-.743 2.769-2.327zm-15.158-3.34c0 1.58-1.494 2.68-4.612 2.68-3.12 0-4.616-1.1-4.616-2.68s1.496-2.68 4.616-2.68c3.118 0 4.612 1.1 4.612 2.68m-7.424 13.222v1.892c0 1.624 1.36 2.374 2.812 2.374 1.448 0 2.812-.75 2.812-2.374v-1.892h6.896c1.361 0 1.979-1.095 1.979-2.368 0-1.232-.618-2.33-1.979-2.33H304.87c-1.362 0-1.978 1.098-1.978 2.33 0 1.273.616 2.368 1.978 2.368zm-8.085-28.115c-1.363 0-1.976 1.1-1.976 2.37 0 1.231.613 2.328 1.976 2.328 2.679 0 5.404 0 8.129.046v3.471c-4.35.703-6.898 3.077-6.898 6.678 0 4.306 3.69 6.9 9.666 6.9 5.974 0 9.665-2.594 9.665-6.9 0-3.6-2.594-5.975-6.898-6.678v-3.337c2.592.087 5.183.263 7.733.483 1.36.13 1.978-.835 2.109-2.109.131-1.232-.397-2.374-1.714-2.507-5.668-.481-13.707-.745-21.792-.745" style="fill:#00225b;fill-opacity:1;fill-rule:nonzero;stroke:none;stroke-width:1.20569" transform="matrix(1.33333 0 0 -1.33333 -192.327 987.439)"/><path d="M254.078 636.427h3.514v8.126c0 1.496 1.274 2.198 2.548 2.198 1.32 0 2.592-.702 2.592-2.198v-21.966c0-1.492-1.273-2.197-2.592-2.197-1.274 0-2.548.705-2.548 2.197v9.139h-3.514v-7.337c0-1.452-1.276-2.154-2.549-2.154s-2.548.702-2.548 2.154v19.988c0 1.452 1.275 2.155 2.548 2.155 1.273 0 2.549-.703 2.549-2.155zm-5.052-20.344c-5.757 0-8.04-1.228-8.04-3.206s2.283-3.207 8.04-3.207c5.755 0 8.04 1.229 8.04 3.207 0 1.978-2.285 3.206-8.04 3.206m0 4.438c8.478 0 13.62-2.373 13.62-7.644 0-5.315-5.142-7.645-13.62-7.645-8.48 0-13.62 2.33-13.62 7.645 0 5.314 5.14 7.644 13.62 7.644m-7.382 8.393c0 1.8-1.492 2.943-3.734 2.943s-3.735-1.143-3.735-2.943c0-1.804 1.493-2.944 3.735-2.944s3.734 1.14 3.734 2.944m4.787 0c0-4.396-3.204-7.162-8.521-7.162-5.316 0-8.524 2.766-8.524 7.162 0 4.392 3.208 7.16 8.524 7.16 5.317 0 8.521-2.768 8.521-7.16m-11.29 13.488v2.196c0 1.583 1.364 2.328 2.769 2.328 1.407 0 2.768-.745 2.768-2.328v-2.196h5.184c1.36 0 1.976-1.098 1.976-2.371 0-1.23-.616-2.329-1.976-2.329h-16.564c-1.363 0-1.976 1.099-1.976 2.329 0 1.273.613 2.371 1.976 2.371zM291.339 634.272c.439 0 .658.222.658.66v2.108h-16.519v-2.107c0-.44.22-.66.66-.66zm.615-20.868c0 .746-.263 1.01-1.01 1.01h-19.64c-1.315 0-1.934 1.055-1.934 2.33 0 1.274.619 2.328 1.934 2.328h22.54c2.81 0 3.733-.881 3.733-3.647v-7.776c0-1.626-1.361-2.374-2.811-2.374-1.449 0-2.812.748-2.812 2.374zm-24.868 8.261c-1.317 0-1.932 1.055-1.932 2.33 0 1.272.615 2.328 1.932 2.328h13.884v3.469h-7.249c-2.811 0-3.732.879-3.732 3.646v10.282c0 1.538 1.36 2.283 2.722 2.283 1.406 0 2.767-.745 2.767-2.283v-2.2h16.52v2.2c0 1.538 1.363 2.283 2.723 2.283 1.407 0 2.768-.745 2.768-2.283v-10.282c0-2.767-.922-3.646-3.734-3.646h-7.248v-3.47h13.883c1.318 0 1.932-1.055 1.932-2.327 0-1.275-.614-2.33-1.932-2.33zM334.266 635.285h4.175c1.361 0 1.977-1.1 1.977-2.418s-.616-2.417-1.977-2.417h-4.175v-11.728c0-1.625-1.36-2.374-2.767-2.374-1.45 0-2.81.749-2.81 2.374v25.655c0 1.627 1.36 2.375 2.81 2.375 1.407 0 2.767-.748 2.767-2.375zm-15.245-7.03c0 1.8-1.493 3.16-4.613 3.16s-4.613-1.36-4.613-3.16c0-1.803 1.494-3.165 4.613-3.165 3.12 0 4.613 1.362 4.613 3.164m-7.03-21.925c-2.81 0-3.733.881-3.733 3.65v6.633c0 1.624 1.361 2.37 2.856 2.37 1.45 0 2.81-.746 2.81-2.37v-4.483c0-.745.265-1.009 1.011-1.009h18.323c1.36 0 1.976-1.1 1.976-2.416 0-1.276-.616-2.375-1.976-2.375zm12.084 21.925c0-4.613-3.69-7.467-9.667-7.467-5.975 0-9.666 2.854-9.666 7.467 0 4.613 3.69 7.468 9.666 7.468 5.977 0 9.667-2.855 9.667-7.468m-19.815 9.315c-1.364 0-1.978 1.099-1.978 2.37 0 1.276.614 2.372 1.978 2.372h7.336v2.155c0 1.626 1.362 2.374 2.812 2.374 1.45 0 2.813-.748 2.813-2.374v-2.155h6.897c1.362 0 1.978-1.096 1.978-2.371 0-1.272-.616-2.37-1.978-2.37zM383.72 661.293v-7.899h14.623v7.899c-2.273-.197-4.744-.288-7.309-.288-2.57 0-5.038.091-7.314.288m-11.062 16.993c0-4.638 5.234-7.211 18.376-7.211 13.139 0 18.375 2.573 18.375 7.211 0 4.644-5.236 7.214-18.375 7.214-13.142 0-18.376-2.57-18.376-7.214m18.376-49.993c-13.243 0-18.574-2.662-18.574-7.309 0-4.64 5.33-7.306 18.574-7.306 13.237 0 18.573 2.666 18.573 7.306 0 4.647-5.336 7.31-18.573 7.31m0 9.982c19.365 0 31.123-5.24 31.123-17.292 0-12.054-11.758-17.29-31.123-17.29-19.367 0-31.121 5.236-31.121 17.29 0 12.052 11.754 17.292 31.121 17.292m-37.449 4.743c-2.962 0-4.344 2.372-4.344 5.236 0 2.764 1.382 5.14 4.344 5.14h18.082v10.27c-7.411 2.67-11.559 7.41-11.559 14.621 0 12.062 11.66 17.288 30.926 17.288 19.265 0 30.921-5.226 30.921-17.288 0-7.211-4.147-11.95-11.556-14.62v-10.272h18.078c2.966 0 4.349-2.375 4.349-5.14 0-2.863-1.383-5.235-4.349-5.235zM509.59 656.773c3.158 0 4.544-2.472 4.544-5.43 0-3.063-1.386-5.535-4.545-5.535h-9.288v-26.38c0-3.655-3.064-5.333-6.325-5.333-3.258 0-6.32 1.678-6.32 5.333v71.288c0 3.656 3.062 5.335 6.32 5.335 3.261 0 6.325-1.679 6.325-5.336v-33.942Zm-59.38-66.194c-6.324 0-8.397 1.974-8.397 8.2v18.676c0 3.657 3.06 5.33 6.421 5.33 3.261 0 6.323-1.673 6.323-5.33V603.62c0-1.682.593-2.27 2.272-2.27h41.199c3.066 0 4.45-2.467 4.45-5.438 0-2.866-1.384-5.333-4.45-5.333zm12.152 72.714c0-6.224 1.778-10.466 6.223-14.425 4.254-3.754 8-6.812 10.867-8.99 2.866-2.172 2.473-5.337.694-7.705-1.58-2.175-4.94-3.652-7.706-1.578-2.47 1.872-6.127 4.836-9.882 8.095-4.543 4.06-5.829 5.438-6.423 7.608h-.099c-.493-2.267-1.68-4.048-6.714-8.394a180.03 180.03 0 0 0-11.265-9.092c-2.866-2.17-6.225-.592-7.806 1.586-1.68 2.267-2.273 5.727.792 8.001 4.247 3.16 7.999 6.223 12.25 9.979 4.447 3.95 6.224 8.2 6.224 14.423v9.389c0 3.75 3.061 5.432 6.423 5.432 3.357 0 6.422-1.681 6.422-5.432z" style="fill:#e51e2c;fill-opacity:1;fill-rule:nonzero;stroke:none;stroke-width:1.20569" transform="matrix(1.33333 0 0 -1.33333 -192.327 987.439)"/></svg>