<svg xmlns="http://www.w3.org/2000/svg" xml:space="preserve" id="Layer_1" x="0px" y="0px" style="enable-background:new 0 0 277.1 202" version="1.1" viewBox="0 0 277.1 202"><style>.st0{fill:#004ea2}</style><path d="M30.4 200.5h92v-50S72.2 163 50 163l-19.6 37.5zM140.2 145.8v55l92.7-.8-28.4-58s43.6-18.8 60.2-40.9c0 0 47.3-47.9-54.3-51.3 0 0 80.5 1.7 29.9 49.6 0 .2-40.3 32.3-100.1 46.4z" class="st0"/><path d="M21.6 98.7s-41.7 35.9 47.3 26.7L132 2l53.6 106.3s-32.5 12.5-47.3 17.5v-12.1h12.9V91.2h-4.4V80h-4.1v-8h-7.4V27h-2.6V14.1h-1.5V27h-3v45h-7.8v7.5h-3.3v11.3h-4.8v22.9h12.9v15.4s-66.1 21.3-109.7 8.3c.2.1-34.2-8.7 6.1-38.7z" style="fill:#00a040"/><path d="M193.4 50c0 7.2-5.2 13-11.5 13-6.4 0-11.5-5.8-11.5-13s5.2-13 11.5-13 11.5 5.8 11.5 13z" style="fill:#e60020"/></svg>