<?xml version="1.0" encoding="utf-8"?>
<!-- Generator: Adobe Illustrator 27.7.0, SVG Export Plug-In . SVG Version: 6.00 Build 0)  -->
<svg version="1.1" id="Layer_1" xmlns="http://www.w3.org/2000/svg" xmlns:xlink="http://www.w3.org/1999/xlink" x="0px" y="0px"
	 viewBox="0 0 100 29" style="enable-background:new 0 0 100 29;" xml:space="preserve">
<style type="text/css">
	.st0{fill:#6C6C6B;}
	.st1{fill:#A51D37;}
	.st2{fill:#FFFFFF;}
</style>
<g>
	<path class="st0" d="M63.67,5.91v2.51h3.46v0.65c0,2.59-1.05,3.96-3.86,4.85l1.06,2.4c1.94-0.46,3.84-1.6,4.63-3.16
		c0.84,1.56,2.66,2.64,4.36,3.04l1.35-2.74c-2.46-0.53-4.22-1.87-4.22-4.42V8.42h3.41V5.91H63.67z M79.45,5.57h-3.18v3.62h-2.99
		v2.61h2.99v6.6h2.8c0.23-0.89,0.38-2.4,0.38-3.48V5.57z M79.77,20.75h-9.36c-0.25,0-0.32-0.06-0.32-0.32v-3.71h-3.18v5.01
		c0,1.09,0.55,1.6,1.64,1.6h11.23V20.75z M81.58,5.89v2.49h3.62v1.2c0,3.18-0.65,5.18-3.94,6.62l1.24,2.21
		c1.88-0.7,3.65-2.04,4.47-3.73c0.82,1.6,2.53,2.91,4.19,3.56l1.49-2.59c-3.2-1.2-4.3-3.07-4.3-6.09V8.38h3.52V5.89H81.58z
		 M100,10.29h-3.16V5.57H93.8v17.76h2.67c0.25-1.05,0.38-2.85,0.38-4.25v-6.23H100V10.29z"/>
	<polygon class="st0" points="37.33,23.07 44.6,23.07 44.6,19.73 36.4,19.73 36.4,5.93 32.44,5.93 32.44,23.07 	"/>
	<path class="st0" d="M53.31,16.54h3.23v3c-0.59,0.23-1.75,0.45-2.86,0.45c-3.56,0-4.75-1.81-4.75-5.49c0-3.51,1.13-5.57,4.69-5.57
		c1.98,0,3.11,0.62,4.04,1.81l2.46-2.26c-1.5-2.15-4.13-2.8-6.59-2.8c-5.54,0-8.46,3.03-8.46,8.79c0,5.74,2.63,8.85,8.43,8.85
		c2.66,0,5.26-0.68,6.67-1.67v-8.31h-6.87V16.54z"/>
	<g>
		<g>
			<path class="st1" d="M13.26,27.76c7.32,0,13.26-5.94,13.26-13.26c0-7.32-5.93-13.25-13.26-13.25C5.94,1.24,0,7.18,0,14.5
				C0,21.82,5.94,27.76,13.26,27.76"/>
		</g>
		<g>
			<polygon class="st2" points="12.73,8.68 12.73,20.3 16.42,20.3 16.42,19.27 13.78,19.27 13.78,8.68 			"/>
			<g>
				<path class="st2" d="M9.03,11.85c0.88,0,1.59-0.71,1.59-1.59c0-0.88-0.71-1.59-1.59-1.59c-0.87,0-1.59,0.71-1.59,1.59
					C7.44,11.14,8.15,11.85,9.03,11.85"/>
				<path class="st2" d="M13.78,3.41c-0.13-0.01-0.4-0.01-0.53-0.01C7.14,3.4,2.17,8.38,2.17,14.5c0,2.96,1.15,5.75,3.24,7.84
					c2.1,2.1,4.89,3.25,7.85,3.25c2.96,0,5.75-1.15,7.85-3.25c2.09-2.09,3.24-4.88,3.24-7.84v-0.51l-0.44,0h-7.48v1.03h6.87v0.15
					c-0.35,5.23-4.72,9.38-10.04,9.38c-2.68,0-5.21-1.05-7.11-2.94c-1.9-1.9-2.95-4.43-2.95-7.11c0-2.69,1.05-5.21,2.95-7.11
					c1.9-1.9,4.43-2.95,7.11-2.95c0.12,0,0.41,0,0.53,0.01V3.41z"/>
			</g>
		</g>
	</g>
</g>
</svg>
