<svg xmlns="http://www.w3.org/2000/svg" height="48" viewBox="0 -960 960 960" width="48"><path d="M189-110q-16.1 0-26.05-10.988Q153-131.975 153-147v-49h-41v-157q0-15.975 10.513-26.487Q133.025-390 149-390h44v-302q0-66.888 49.103-111.944T360.159-849Q425-849 471-803.444T517-692v424q0 35 23.763 59.5Q564.525-184 601-184q38 0 66-23.262 28-23.263 28-60.738v-302h-44q-15.975 0-26.488-10.512Q614-591.025 614-607v-157h41v-49q0-15.025 9.95-26.013Q674.9-850 691-850h81q15.55 0 25.775 10.987Q808-828.025 808-813v49h41v157q0 15.975-11.025 26.488Q826.95-570 812-570h-44v302q0 66.887-49.659 111.944-49.66 45.056-118 45.056Q535-111 489.5-156.556 444-202.113 444-268v-424q0-35-24.5-59.5t-60-24.5q-38.5 0-66 23.263Q266-729.475 266-692v302h44q14.95 0 25.975 10.513Q347-368.975 347-353v157h-41v49q0 15.975-11.025 26.487Q283.95-110 269-110h-80Z"/></svg>