<svg xmlns="http://www.w3.org/2000/svg" height="48" viewBox="0 -960 960 960" width="48"><path d="M624.92-759Q591-759 568-782.5T545-839q0-33 23.08-56.5 23.079-23.5 56.5-23.5 33.42 0 56.92 23.5T705-839q0 33-23.523 56.5Q657.953-759 624.92-759ZM429-551l89 95v255h-73v-207L311-526q-11-8-17.5-23.306-6.5-15.307-6.5-30.73t7-29.693Q301-624 311-633l118-119q9-9.083 24.615-16.042 15.616-6.958 33-6.958 17.385 0 32.802 6.917Q534.833-761.167 545-752l79 79q28 29 67.038 47 39.039 18 84.962 18v73q-59.564 0-112.282-22Q611-579 570-621l-36-36-105 106Zm-245.412 79Q270-472 329.5-412.912q59.5 59.087 59.5 146Q389-180 329.287-121q-59.712 59-145.375 59Q97-62 38-121.088q-59-59.087-59-146Q-21-354 38.088-413q59.087-59 145.5-59ZM184-119q63 0 105.5-42.5T332-267q0-63-42.5-105.5t-106-42.5Q120-415 78-372.5T36-267q0 63 41.907 105.5T184-119Zm592.588-353Q863-472 922.5-412.912q59.5 59.087 59.5 146Q982-180 922.287-121q-59.712 59-145.375 59Q690-62 631-121.088q-59-59.087-59-146Q572-354 631.088-413q59.087-59 145.5-59ZM777-119q63 0 105.5-42.5T925-267q0-63-42.5-105.5t-106-42.5Q713-415 671-372.5T629-267q0 63 41.907 105.5T777-119Z"/></svg>