<svg xmlns="http://www.w3.org/2000/svg" height="48" viewBox="0 -960 960 960" width="48"><path d="M201-197v52q0 13.6-9.795 22.8-9.795 9.2-23.616 9.2H145.07q-13.82 0-23.445-9.2T112-145v-330.286L199-735q4.643-13.8 17.184-22.9Q228.724-767 245-767h470q16.276 0 28.816 9.1Q756.357-748.8 761-735l87 259.714V-145q0 13.6-9.795 22.8-9.795 9.2-23.616 9.2H791.07q-13.82 0-23.445-9.2T758-145v-52H201Zm1-343h556l-54-162H256l-54 162Zm82.265 228Q308-312 324.5-328.667 341-345.333 341-368q0-24.333-16.667-41.167Q307.667-426 285-426q-24.333 0-41.167 16.765Q227-392.471 227-368.735 227-345 243.765-328.5q16.764 16.5 40.5 16.5ZM676-312q24.333 0 41.167-16.667Q734-345.333 734-368q0-24.333-16.765-41.167Q700.471-426 676.735-426 653-426 636.5-409.235q-16.5 16.764-16.5 40.5Q620-345 636.667-328.5 653.333-312 676-312Z"/></svg>