<svg xmlns="http://www.w3.org/2000/svg" height="24px" viewBox="0 -960 960 960" width="24px" fill="#FFFFFF"><path d="M444-22v-82q-139-15-232.5-108T103-444H21v-73h82q15-139 108.5-232.5T444-859v-82h73v82q138 16 231.5 109.5T858-517h82v73h-82q-16 139-109.5 232T517-104v82h-73Zm252.5-243Q786-354 786-481t-89.5-216.5Q607-787 480.5-787t-216 89.5Q175-608 175-481t89.5 216q89.5 89 216 89t216-89Zm-332-99.5Q317-412 317-481t47.5-116.5Q412-645 480.5-645T597-597.5Q645-550 645-481t-48 116.5Q549-317 480.5-317t-116-47.5Zm180.5-52q27-26.5 27-64.5t-27-64.5Q518-572 480.5-572t-64 26.5Q390-519 390-481t26.5 64.5q26.5 26.5 64 26.5t64.5-26.5ZM481-481Z"/></svg>