<svg xmlns="http://www.w3.org/2000/svg" height="24px" viewBox="0 -960 960 960" width="24px" fill="#FFFFFF"><path d="M420 6v-86Q291-95 192-194.5T79-420H-6v-120h85q16-129 115.5-228.5T420-882v-85h120v85q126 14 225.5 113.5T881-540h85v120h-85q-14 126-113 225.5T540-80V6H420Zm251.5-296Q750-368 750-481t-78.5-191q-78.5-78-191-78t-191 78Q211-594 211-481t78.5 191q78.5 78 191 78t191-78ZM360-360q-50-50-50-120.5t50-121Q410-652 480.5-652T601-601.5q50 50.5 50 121T601-360q-50 50-120.5 50T360-360Zm155.5-85.35q14.5-14.35 14.5-35T515.65-516q-14.35-15-35-15t-35.15 14.85Q431-501.3 431-480.65t14.35 35.15q14.35 14.5 35 14.5t35.15-14.35ZM480-481Z"/></svg>