<svg xmlns="http://www.w3.org/2000/svg" height="24px" viewBox="0 -960 960 960" width="24px" fill="#FFFFFF"><path d="M694.76-48Q638-48 598-87.96q-40-39.96-40-97.04 0-10 4-32L277-380q-18.21 16.87-42.1 26.44Q211-344 185-344q-57.08 0-97.04-39.74Q48-423.47 48-480.24 48-537 87.96-577q39.96-40 97.04-40 26 0 49.9 9.56 23.89 9.56 42.1 26.44l285-164q-2-8-3-15.5t-1-15.5q0-57.08 39.94-97.04 39.94-39.96 97-39.96t96.56 39.94q39.5 39.94 39.5 97t-39.67 96.56Q751.67-640 695-640q-26 0-50-9t-42-26L317-512q2 8 3 16t1 16q0 8-.5 15.15T318-450l286 164q18-17 41.5-26t49.5-9q56.67 0 96.33 39.74Q831-241.53 831-184.76 831-128 791.26-88q-39.73 40-96.5 40Z"/></svg>