<svg xmlns="http://www.w3.org/2000/svg" height="48" viewBox="0 -960 960 960" width="48"><path d="M189-154q-63 0-107.5-44.26Q37-242.519 36-306.852q0-8.787.5-18.574T40-345l84-336q14.174-55.463 59.281-90.731Q228.387-807 285-807h390q56.613 0 101.719 35.269Q821.826-736.463 837-681l84 336q2 9.735 3.5 20.01 1.5 10.276 1.5 19.01Q926-242 880.5-198q-45.5 44-109.422 44Q727-154 689.5-176.5T633-239l-28-58q-4-8-12.5-12.5T575-314H385q-9 0-17.5 4.5T355-297l-28 58q-19 40-56.658 62.5T189-154Zm351.175-376q12.825 0 21.325-8.675 8.5-8.676 8.5-21.5 0-12.825-8.675-21.325-8.676-8.5-21.5-8.5-12.825 0-21.325 8.675-8.5 8.676-8.5 21.5 0 12.825 8.675 21.325 8.676 8.5 21.5 8.5Zm80-80q12.825 0 21.325-8.675 8.5-8.676 8.5-21.5 0-12.825-8.675-21.325-8.676-8.5-21.5-8.5-12.825 0-21.325 8.675-8.5 8.676-8.5 21.5 0 12.825 8.675 21.325 8.676 8.5 21.5 8.5Zm0 160q12.825 0 21.325-8.675 8.5-8.676 8.5-21.5 0-12.825-8.675-21.325-8.676-8.5-21.5-8.5-12.825 0-21.325 8.675-8.5 8.676-8.5 21.5 0 12.825 8.675 21.325 8.676 8.5 21.5 8.5Zm80-80q12.825 0 21.325-8.675 8.5-8.676 8.5-21.5 0-12.825-8.675-21.325-8.676-8.5-21.5-8.5-12.825 0-21.325 8.675-8.5 8.676-8.5 21.5 0 12.825 8.675 21.325 8.676 8.5 21.5 8.5Zm-360.059 65Q351-465 358-472.083q7-7.084 7-17.917v-45h45q10.833 0 17.917-7.116 7.083-7.117 7.083-18Q435-571 427.917-578q-7.084-7-17.917-7h-45v-45q0-10.833-7.116-17.917-7.117-7.083-18-7.083Q329-655 322-647.917q-7 7.084-7 17.917v45h-45q-10.833 0-17.917 7.116-7.083 7.117-7.083 18Q245-549 252.083-542q7.084 7 17.917 7h45v45q0 10.833 7.116 17.917 7.117 7.083 18 7.083Z"/></svg>