<?xml version="1.0" encoding="utf-8"?>
<!-- Generator: Adobe Illustrator 21.1.0, SVG Export Plug-In . SVG Version: 6.00 Build 0)  -->
<svg version="1.1" id="KR" xmlns="http://www.w3.org/2000/svg" xmlns:xlink="http://www.w3.org/1999/xlink" x="0px" y="0px"
	 width="130.2400055px" height="41px" viewBox="0 0 130.2400055 41" enable-background="new 0 0 130.2400055 41"
	 xml:space="preserve">
<g>
	<g>
		<g>
			<g>
				<path fill="#A6A6A6" d="M119.7089081,0H9.5346785C9.1679783,0,8.8056688,0,8.4399481,0.001953
					C8.1337986,0.003906,7.8300886,0.009766,7.5209999,0.014648C6.8554783,0.03125,6.1816483,0.072266,5.5170984,0.191406
					C4.8476682,0.308594,4.2255983,0.508789,3.6162183,0.818359C3.0175884,1.125,2.4707,1.52344,1.9975684,1.99707
					c-0.47852,0.4736301-0.875,1.0224601-1.17822,1.6210901c-0.311039,0.6084001-0.508305,1.2334001-0.625004,1.9033201
					c-0.120606,0.6621099-0.162109,1.3320398-0.179199,2.0019598C0.0058674,7.83008,0.0048914,8.1377001,0,8.4443398
					C0,8.8066397,0,9.16992,0,9.53613v20.928669c0,0.3691998,0,0.7304993,0,1.0937996
					c0.0048914,0.3105011,0.0058674,0.6112995,0.0151454,0.9218998c0.01709,0.669899,0.058593,1.3398018,0.179199,2.0018997
					c0.116699,0.6699028,0.313965,1.2979012,0.625004,1.9043007c0.30322,0.5956993,0.6996999,1.1445999,1.17822,1.6142998
					c0.4731317,0.4775009,1.02002,0.875,1.61865,1.1786995c0.60938,0.3125,1.2314498,0.5098,1.9008801,0.6308022
					c0.6645498,0.1191978,1.3383799,0.1582985,2.0039015,0.1767998c0.3090887,0.0067978,0.6127987,0.0107002,0.9189482,0.0107002
					C8.8056688,40,9.1679783,40,9.5346785,40h110.1742325c0.3594055,0,0.7246017,0,1.0840073-0.0019989
					c0.3046951,0,0.6171951-0.0039024,0.9218979-0.0107002c0.669899-0.0185013,1.3417969-0.0576019,2-0.1767998
					c0.669899-0.1210022,1.2929001-0.3183022,1.9081955-0.6308022c0.5976028-0.3036995,1.1445007-0.7011986,1.6172028-1.1786995
					c0.4765015-0.4696999,0.8730087-1.0186005,1.1816025-1.6142998c0.3065948-0.6063995,0.5059052-1.2343979,0.6190948-1.9043007
					c0.1231079-0.6620979,0.1621094-1.3320007,0.1856079-2.0018997c0.003891-0.3106003,0.003891-0.6113987,0.003891-0.9218998
					c0.0078125-0.3633003,0.0078125-0.7245998,0.0078125-1.0937996V9.53613c0-0.36621,0-0.7294903-0.0078125-1.0917902
					c0-0.3066397,0-0.6142597-0.003891-0.9208999c-0.0234985-0.66992-0.0625-1.3398499-0.1856079-2.0019598
					c-0.1131897-0.66992-0.3125-1.29492-0.6190948-1.9033201c-0.3085938-0.59863-0.705101-1.14746-1.1816025-1.6210901
					c-0.472702-0.47363-1.0195999-0.87207-1.6172028-1.1787109c-0.6152954-0.30957-1.2382965-0.509765-1.9081955-0.626953
					c-0.6582031-0.11914-1.330101-0.160156-2-0.176758c-0.3047028-0.004882-0.6172028-0.010742-0.9218979-0.012695
					C120.4335098,0,120.0683136,0,119.7089081,0L119.7089081,0z"/>
				<path d="M8.444828,39.125c-0.3046799,0-0.6020498-0.0038986-0.9042897-0.0107002
					c-0.5590801-0.0157013-1.2221699-0.0468979-1.8691401-0.1631012c-0.6103497-0.1103973-1.1528397-0.2901001-1.6567397-0.5478973
					c-0.5214901-0.2646027-0.9902401-0.6063995-1.39697-1.0166016c-0.4140701-0.4062004-0.7544-0.8730011-1.0205101-1.3964996
					c-0.25928-0.5047989-0.43653-1.0467987-0.5429784-1.6571999c-0.1220616-0.672802-0.1533116-1.3554993-0.1665-1.875
					c-0.0063416-0.2108994-0.0146416-0.9130993-0.0146416-0.9130993V8.4443398c0,0,0.00879-0.6914096,0.0146416-0.8945398
					C0.9008884,7.0258799,0.9321384,6.34375,1.0532284,5.6777301c0.10694-0.61377,0.2841716-1.1552701,0.54346-1.6621003
					C1.8622999,3.49121,2.2031384,3.02197,2.6118283,2.6176801C3.0253985,2.2036099,3.4960983,1.86084,4.0141683,1.59521
					C4.5278382,1.33447,5.0693483,1.15625,5.6674886,1.05127c0.6733398-0.120606,1.3559599-0.150879,1.8754897-0.164063
					L8.4453182,0.875h112.3426895l0.9131012,0.012695c0.5127029,0.012696,1.1952972,0.042969,1.8583984,0.162595
					c0.6025009,0.1054701,1.1474991,0.28467,1.6709061,0.54785c0.5126953,0.2627,0.982399,0.6054699,1.3915939,1.01563
					c0.4092026,0.40625,0.7518997,0.8779299,1.0233994,1.4043002c0.2578049,0.51123,0.4336014,1.0527296,0.5352097,1.6489196
					c0.1161957,0.6308603,0.152298,1.27881,0.1737976,1.8872104c0.0028992,0.2831998,0.0028992,0.5873995,0.0028992,0.8901396
					c0.0079041,0.375,0.0079041,0.7319298,0.0079041,1.0917902v20.928669c0,0.3633003,0,0.7178001-0.0079041,1.075201
					c0,0.3251991,0,0.6231003-0.0039062,0.9296989c-0.0204926,0.5889015-0.0565948,1.2364006-0.1708984,1.8535004
					c-0.1035004,0.6133003-0.2792969,1.1553001-0.5400009,1.6699982c-0.2695007,0.5195007-0.6122971,0.9892006-1.0155945,1.3857002
					c-0.4131012,0.4180031-0.8819046,0.7588005-1.3994064,1.0225029c-0.5186005,0.2635994-1.0478973,0.4384003-1.6679993,0.5497971
					c-0.6405945,0.1162033-1.3036957,0.1473999-1.869194,0.1631012c-0.2929001,0.0068016-0.5996017,0.0107002-0.8973999,0.0107002
					l-1.0840073,0.0019989L8.444828,39.125z"/>
			</g>
		</g>
	</g>
	<g>
		<path fill="#FFFFFF" d="M36.8369331,25.5175781c0,1.5195312,0.7075195,2.6191406,1.8457031,3.234375l-0.5449219,0.6982422
			c-0.6723633-0.3818359-1.5424805-1.2353516-1.7709961-2.0087891c-0.1933594,0.8183594-1.0458984,1.7851562-1.7929688,2.2070312
			l-0.5712891-0.6816406c1.2480469-0.734375,1.8764648-1.9160156,1.8764648-3.4140625V24.453125h0.9580078V25.5175781z
			 M40.0097847,26.6816406h1.0854492v0.7597656h-1.0854492v3.8544922h-0.9140625v-7.4755859h0.9140625V26.6816406z"/>
		<path fill="#FFFFFF" d="M42.2441597,28.4130859l-0.4702148-0.7207031
			c1.0898438-0.4042969,1.7973633-1.2353516,1.7973633-2.3730469v-0.1582031h-1.4941406v-0.7558594h3.9243164v0.7558594H44.538105
			v0.1181641c0,1.15625,0.777832,1.9208984,1.7226562,2.2548828l-0.496582,0.7207031
			c-0.6503906-0.2333984-1.4370117-0.9140625-1.7006836-1.5419922
			C43.8745308,27.3886719,43.0351753,28.1318359,42.2441597,28.4130859z M48.1020699,30.3554688v0.734375h-5.1547852v-2.3427734
			h0.9316406v1.6083984H48.1020699z M45.8213081,25.8417969h1.2041016v-2.0253906h0.9404297v5.4355469h-0.9404297v-2.671875
			h-1.2041016V25.8417969z"/>
		<path fill="#FFFFFF" d="M58.4282417,27.9785156v0.7460938h-2.9399414v2.5839844h-0.9228516v-2.5839844h-2.8959961v-0.7460938
			H58.4282417z M54.5127144,24.9238281H52.284687v-0.734375h5.5151367v0.734375h-2.2280273
			c0.0439453,0.953125,1.2963867,1.6083984,2.5400391,1.7402344l-0.3735352,0.734375
			c-1.050293-0.1455078-2.2851562-0.6855469-2.6938477-1.4902344c-0.4130859,0.7949219-1.6391602,1.3535156-2.6894531,1.4941406
			l-0.3647461-0.7294922C53.2558784,26.5410156,54.4687691,25.8818359,54.5127144,24.9238281z"/>
		<path fill="#FFFFFF" d="M66.0278549,27.5390625v0.7285156h-2.8872108v1.4111328h-0.9316406v-1.4111328H59.269062v-0.7285156
			H66.0278549z M61.0664253,30.359375h4.1655312v0.7382812h-5.0839882v-2.1396484h0.918457V30.359375z M65.1489487,26.8886719
			h-4.9834023v-2.6679688h4.9834023V26.8886719z M64.2129135,24.9550781h-3.1113319v1.1992188h3.1113319V24.9550781z"/>
		<path fill="#FFFFFF" d="M71.1753159,26.3564453h-4.359375v-0.7333984h4.359375V26.3564453z M69.0346909,29.8769531
			c-1.0322266,0-1.7832031-0.6601562-1.7832031-1.5869141c0-0.9365234,0.7509766-1.5869141,1.7832031-1.5869141
			c1.0292969,0,1.7978516,0.6552734,1.7978516,1.5869141S70.0639877,29.8769531,69.0346909,29.8769531z M70.1645737,25.0556641
			h-2.2675781v-0.7509766h2.2675781V25.0556641z M69.0346909,29.1464844c0.5146484,0,0.9140625-0.3554688,0.9140625-0.8564453
			c0-0.5048828-0.3867188-0.8613281-0.9140625-0.8613281c-0.5097656,0-0.8916016,0.3564453-0.8916016,0.8613281
			C68.1430893,28.7910156,68.5249252,29.1464844,69.0346909,29.1464844z M72.6909409,26.9101562h1.0722656v0.7597656h-1.0722656
			v3.6259766h-0.921875v-7.4707031h0.921875V26.9101562z"/>
		<path fill="#FFFFFF" d="M74.9956284,29.9375l-0.5224609-0.7246094c1.7275391-0.8300781,2.7998047-2.3203125,2.9355469-3.8408203
			h-2.5185547v-0.7646484h3.5029297C78.3354721,26.8613281,77.2632065,28.703125,74.9956284,29.9375z M80.6382065,31.3007812
			h-0.9267578v-7.4804688h0.9267578V31.3007812z"/>
	</g>
	<g>
		<path fill="#FFFFFF" d="M41.1601753,16.5541992h-4.0449219l-0.9707031,2.8681641h-1.7138672L38.2627144,8.809082h1.7792969
			l3.8320312,10.6132812h-1.7431641L41.1601753,16.5541992z M37.5341988,15.2299805H40.74123l-1.5820312-4.6552734h-0.0439453
			L37.5341988,15.2299805z"/>
		<path fill="#FFFFFF" d="M52.163105,15.5541992c0,2.4042969-1.2871094,3.9492188-3.2285156,3.9492188
			c-1.1035156,0-1.9785156-0.4931641-2.4345703-1.3535156h-0.0361328v3.8320312h-1.5888672v-10.296875h1.5371094v1.2871094
			h0.0292969c0.4414062-0.8310547,1.3828125-1.3681641,2.4638672-1.3681641
			C50.8691597,11.6040039,52.163105,13.1557617,52.163105,15.5541992z M50.5302925,15.5541992
			c0-1.5673828-0.8085938-2.5966797-2.0439453-2.5966797c-1.2138672,0-2.0302734,1.0517578-2.0302734,2.5966797
			c0,1.5585938,0.8164062,2.6035156,2.0302734,2.6035156C49.7216988,18.1577148,50.5302925,17.1352539,50.5302925,15.5541992z"/>
		<path fill="#FFFFFF" d="M60.6953316,15.5541992c0,2.4042969-1.2871094,3.9492188-3.2285156,3.9492188
			c-1.1035156,0-1.9785156-0.4931641-2.4345703-1.3535156h-0.0361328v3.8320312h-1.5888672v-10.296875h1.5371094v1.2871094
			h0.0292969c0.4414062-0.8310547,1.3828125-1.3681641,2.4638672-1.3681641
			C59.4013863,11.6040039,60.6953316,13.1557617,60.6953316,15.5541992z M59.0625191,15.5541992
			c0-1.5673828-0.8085938-2.5966797-2.0439453-2.5966797c-1.2138672,0-2.0302734,1.0517578-2.0302734,2.5966797
			c0,1.5585938,0.8164062,2.6035156,2.0302734,2.6035156C58.2539253,18.1577148,59.0625191,17.1352539,59.0625191,15.5541992z"/>
		<path fill="#FFFFFF" d="M66.3540268,16.465332c0.1181641,1.0517578,1.1396484,1.7431641,2.5371094,1.7431641
			c1.3388672,0,2.3027344-0.6914062,2.3027344-1.6396484c0-0.8242188-0.5810547-1.3164062-1.9570312-1.6552734l-1.375-0.3310547
			c-1.9492188-0.4707031-2.8535156-1.3818359-2.8535156-2.8603516c0-1.8310547,1.5957031-3.0888672,3.8613281-3.0888672
			c2.2431641,0,3.7802734,1.2578125,3.8320312,3.0888672h-1.6035156c-0.0957031-1.0595703-0.9707031-1.6992188-2.2509766-1.6992188
			c-1.2792969,0-2.1542969,0.6474609-2.1542969,1.5888672c0,0.75,0.5585938,1.1914062,1.9267578,1.5292969l1.1689453,0.2871094
			c2.1767578,0.5146484,3.0820312,1.3896484,3.0820312,2.9423828c0,1.9853516-1.5810547,3.2285156-4.0966797,3.2285156
			c-2.3535156,0-3.9418945-1.2138672-4.0444336-3.1337891H66.3540268z"/>
		<path fill="#FFFFFF" d="M76.3003159,9.8540039v1.8310547h1.4707031v1.2578125h-1.4707031v4.265625
			c0,0.6621094,0.2939453,0.9707031,0.9414062,0.9707031c0.1611328,0,0.4189453-0.0214844,0.5214844-0.0361328v1.25
			c-0.1757812,0.0439453-0.5292969,0.0732422-0.8818359,0.0732422c-1.5673828,0-2.1777344-0.5878906-2.1777344-2.0888672v-4.4345703
			h-1.125v-1.2578125h1.125V9.8540039H76.3003159z"/>
		<path fill="#FFFFFF" d="M78.6401596,15.5541992c0-2.4345703,1.4335938-3.9648438,3.6699219-3.9648438
			c2.2431641,0,3.6699219,1.5302734,3.6699219,3.9648438c0,2.4414062-1.4189453,3.9638672-3.6699219,3.9638672
			S78.6401596,17.9956055,78.6401596,15.5541992z M84.3618393,15.5541992c0-1.6699219-0.7646484-2.6552734-2.0517578-2.6552734
			s-2.0517578,0.9921875-2.0517578,2.6552734c0,1.6767578,0.7646484,2.6542969,2.0517578,2.6542969
			S84.3618393,17.230957,84.3618393,15.5541992z"/>
		<path fill="#FFFFFF" d="M87.2915268,11.6850586h1.5146484v1.3164062h0.0371094
			c0.2421875-0.875,0.9482422-1.3974609,1.8603516-1.3974609c0.2285156,0,0.4199219,0.0292969,0.5449219,0.0595703v1.4853516
			c-0.125-0.0517578-0.4052734-0.0957031-0.7138672-0.0957031c-1.0224609,0-1.6542969,0.6914062-1.6542969,1.7792969v4.5898438
			h-1.5888672V11.6850586z"/>
		<path fill="#FFFFFF" d="M98.5698471,17.1499023c-0.2128906,1.4042969-1.5810547,2.3681641-3.3320312,2.3681641
			c-2.25,0-3.6474609-1.5078125-3.6474609-3.9277344c0-2.4267578,1.4042969-4.0009766,3.5820312-4.0009766
			c2.1396484,0,3.4853516,1.4707031,3.4853516,3.8173828v0.5439453h-5.4638672v0.0957031
			c0,1.3242188,0.8310547,2.1914062,2.0810547,2.1914062c0.8828125,0,1.5742188-0.4189453,1.7871094-1.0878906H98.5698471z
			 M93.2007065,14.840332h3.8691406c-0.0371094-1.1835938-0.7949219-1.9638672-1.8974609-1.9638672
			C94.0757065,12.8764648,93.2817612,13.6713867,93.2007065,14.840332z"/>
		<path fill="#FFFFFF" d="M105.0874252,8.987793h1.2382812v9.9287109h-1.2382812v-5.0117188h-0.9072266
			c-0.1132812,1.7705078-0.8320312,3.3095703-2.2841797,3.3095703c-1.5947266,0-2.3017578-1.8515625-2.3017578-3.828125
			c0-1.9775391,0.7070312-3.7910156,2.3017578-3.7910156c1.4208984,0,2.1396484,1.4384766,2.2773438,3.1523438h0.9140625V8.987793z
			 M102.9790268,13.3862305c0-1.4580078-0.3505859-2.5712891-1.0830078-2.5712891
			c-0.7128906,0-1.0380859,1.1132812-1.0380859,2.5712891c0,1.4638672,0.3251953,2.5644531,1.0380859,2.5644531
			C102.6284409,15.9506836,102.9790268,14.8500977,102.9790268,13.3862305z M108.489769,8.7749023v10.6416016h-1.2382812V8.7749023
			H108.489769z"/>
		<path fill="#FFFFFF" d="M114.0874252,11.2709961c0,2.1650391,1.0009766,3.7226562,2.6279297,4.6044922l-0.7695312,0.9951172
			c-0.9765625-0.5566406-2.2021484-1.7646484-2.5214844-2.8652344c-0.28125,1.1630859-1.4892578,2.5400391-2.5527344,3.140625
			l-0.8134766-0.9638672c1.7705078-1.0507812,2.6660156-2.7333984,2.6660156-4.8671875V9.6694336h1.3632812V11.2709961z
			 M119.0737534,19.4165039h-1.3261719v-5.8496094h-2.1337891v-1.1191406h2.1337891V8.7749023h1.3261719V19.4165039z"/>
	</g>
	<g id="XMLID_22_">
		<g id="XMLID_23_">
			<path id="XMLID_25_" fill="#FFFFFF" d="M24.7688751,20.3006763c-0.0250092-2.7508278,2.2523384-4.0894947,2.3565598-4.1520615
				c-1.289587-1.880518-3.2889233-2.137701-3.9911613-2.1576748c-1.679245-0.1762638-3.3071899,1.0048323-4.1629009,1.0048323
				c-0.8722668,0-2.1897697-0.9873343-3.6085033-0.9581413c-1.8263159,0.0283384-3.5356064,1.0857515-4.4729204,2.7278662
				c-1.9339523,3.3484154-0.4914055,8.2694664,1.3612013,10.976078c0.9268999,1.3253498,2.0101767,2.8057976,3.4276285,2.7533016
				c1.3870649-0.0575314,1.9051008-0.8844776,3.5793962-0.8844776c1.6587582,0,2.1447849,0.8844776,3.5910034,0.8511028
				c1.4883842-0.0241566,2.4261246-1.3312416,3.3205109-2.6691399c1.0711498-1.5195389,1.5012684-3.0158634,1.518425-3.092514
				C27.6534576,24.6881542,24.7972145,23.598732,24.7688751,20.3006763z"/>
			<path id="XMLID_24_" fill="#FFFFFF" d="M22.0372543,12.2108879c0.7456856-0.933217,1.2562122-2.2023182,1.1145172-3.4906235
				c-1.0798626,0.0478859-2.4303074,0.7464542-3.2075768,1.6596127c-0.687727,0.8039846-1.302475,2.1223364-1.1437092,3.3613911
				C20.0133343,13.8313208,21.2587051,13.1294231,22.0372543,12.2108879z"/>
		</g>
	</g>
</g>
<g>
</g>
<g>
</g>
<g>
</g>
<g>
</g>
<g>
</g>
<g>
</g>
</svg>
