<svg height="61" viewBox="0 0 353 61" width="353" xmlns="http://www.w3.org/2000/svg"><path d="M304.425 9.079c5.142-4.582 11.75-7.157 18.753-7.157 15.644 0 28.322 12.763 28.322 28.5 0 15.738-12.677 28.5-28.322 28.5-7 0-13.606-2.574-18.748-7.152a1.668 1.668 0 01-.218-.187c-.511-.515-1.315-.862-1.988-.862-.672 0-1.476.348-2.017.892-.064.06-.123.109-.177.148-5.14 4.584-11.752 7.161-18.76 7.161-6.95 0-13.51-2.542-18.638-7.069a2.297 2.297 0 01-.33-.27c-.51-.515-1.313-.862-1.986-.862s-1.476.347-2.046.92a2.183 2.183 0 01-.142.115c-5.143 4.587-11.756 7.166-18.766 7.166-6.948 0-13.507-2.54-18.635-7.066a2.106 2.106 0 01-.332-.273c-.511-.515-1.315-.862-1.987-.862-.673 0-1.476.347-2.018.892a1.799 1.799 0 01-.167.14c-5.143 4.59-11.759 7.17-18.77 7.17-6.948 0-13.504-2.541-18.633-7.066a2.122 2.122 0 01-.333-.274c-.511-.515-1.315-.862-1.987-.862-.673 0-1.477.348-2.018.892a2.069 2.069 0 01-.167.14c-5.143 4.59-11.758 7.17-18.77 7.17-6.948 0-13.505-2.541-18.634-7.067a2.284 2.284 0 01-.334-.274c-.51-.513-1.313-.86-1.985-.86-.673 0-1.476.346-2.018.891-.105.093-.12.107-.167.14-5.143 4.589-11.76 7.17-18.77 7.17-6.948 0-13.505-2.541-18.635-7.067a2.113 2.113 0 01-.333-.274c-.51-.513-1.313-.86-1.986-.86s-1.476.346-2.018.891c-.1.089-.11.098-.16.136-5.146 4.592-11.763 7.173-18.777 7.173-6.948 0-13.504-2.54-18.633-7.065a2.122 2.122 0 01-.333-.274c-.511-.515-1.315-.862-1.987-.862-.673 0-1.477.348-2.015.89a1.85 1.85 0 01-.19.159c-5.141 4.578-11.748 7.151-18.75 7.151-15.643 0-28.32-12.76-28.32-28.5 0-15.736 12.678-28.499 28.32-28.499 7.006 0 13.616 2.576 18.758 7.159.08.059.143.111.21.182.51.514 1.315.862 1.987.862.671 0 1.476-.348 1.987-.862a2.15 2.15 0 01.339-.278c5.127-4.523 11.681-7.063 18.627-7.063 7.007 0 13.619 2.577 18.76 7.16.088.064.16.125.207.18.512.515 1.317.863 1.988.863.672 0 1.477-.348 1.987-.862a2.16 2.16 0 01.336-.277c5.13-4.524 11.685-7.064 18.632-7.064 7.008 0 13.62 2.579 18.762 7.164.091.068.151.12.205.177.51.515 1.315.862 1.987.862.67 0 1.476-.348 2-.876.1-.099.21-.187.326-.265 5.127-4.522 11.681-7.062 18.627-7.062 7.009 0 13.621 2.579 18.763 7.164.09.068.151.12.205.177.51.514 1.315.862 1.987.862.671 0 1.476-.348 1.987-.862a2.15 2.15 0 01.339-.278c5.127-4.523 11.681-7.063 18.627-7.063 7.005 0 13.614 2.576 18.755 7.157.075.054.143.112.22.192.514.51 1.313.854 1.98.854.671 0 1.475-.348 1.987-.862.103-.104.216-.197.336-.276 5.128-4.524 11.684-7.065 18.631-7.065 7.006 0 13.615 2.576 18.758 7.16.063.046.135.106.21.181.51.514 1.315.862 1.986.862.672 0 1.476-.347 2-.876.1-.097.207-.185.322-.262 5.128-4.524 11.685-7.065 18.632-7.065 7.009 0 13.621 2.579 18.763 7.164.09.068.151.12.205.177.51.514 1.315.862 1.986.862.672 0 1.476-.348 1.937-.807a1.59 1.59 0 01.264-.24z" fill="#fff" fill-rule="evenodd" stroke="#ebdea8" stroke-width="3"/></svg>