<svg width="1440" height="186" viewBox="0 0 1440 186" xmlns="http://www.w3.org/2000/svg"><g fill="none"><path d="M460.215 0l-.418 60 42-5.928zm24.705 80.44L467.172 83l-18.326-2.539-14.79-4.87L426.798 63h75c-4.116 17.585-16.878 17.44-16.878 17.44z" fill="#EC7175"/><path d="M1296.624 56.446c3.288-3.952 3.664-12.17 3.228-21.515-1.723 4.07-6.396 6.025-10.753 6.816-4.357.79-8.971.928-12.833 3.101a13.553 13.553 0 00-6.753 9.879 14.03 14.03 0 00-6.14-8.14c-3.742-2.272-8.317-2.667-12.555-3.773-4.238-1.107-8.733-3.438-10.02-7.627.198 3.458-2.753 14.047 1.584 20.37 2.357 3.437 10.318 9.285 22.636 6.776-.733 0-7.07 6.638-8.714 18.966-.376 2.845 18.734 3.774 17.823.81a27.598 27.598 0 01-1.326-10.372 11.303 11.303 0 016.475-8.89c2.733-1.126 9.981 2.627 17.348-6.401z" fill="#327A93"/><g fill="#327A93"><path d="M116.62 74.111a11.868 11.868 0 01-2.62 1.626l5.436 9.161a7.055 7.055 0 005.081-1.504A6.657 6.657 0 00127 78.835l-8.233-6.904a13.297 13.297 0 01-2.147 2.18zm.38-5.048l-5.41-9.1a7.079 7.079 0 00-5.104 1.514A6.676 6.676 0 00104 66.062l8.184 6.869a11.37 11.37 0 002.676-1.636 11.336 11.336 0 002.14-2.232z"/><path d="M108.087 83.872l-8.175-16.168a5.775 5.775 0 01-.574-4.72 12.019 12.019 0 014.216-5.85l9.62-3.9c.496 0 1.01-.098 1.485-.098a9.184 9.184 0 017.918 3.432c.327.524.561 1.097.693 1.697l6.929 21.278 1.801-.84-6.869-20.964a7.272 7.272 0 00-.95-2.302c-2.242-2.973-5.87-4.613-9.62-4.349h-1.149l-.633-1.54.534-.215a1.494 1.494 0 00.851-1.95l-.95-2.282a1.532 1.532 0 00-1.98-.839l-.99.41-.89-3.062a.92.92 0 00-.493-.588.943.943 0 00-.774-.017l-9.6 3.901a.962.962 0 00-.533.56c-.09.252-.07.53.057.766l1.544 2.77-.99.41a1.494 1.494 0 00-.83 1.95l.95 2.281c.144.373.438.672.811.827.374.154.796.152 1.168-.008l.554-.214.614 1.52c-4.474 3.765-6.156 8.933-3.702 12.795l7.78 15.368 2.177-.059z"/></g><path d="M1440.004 185S5.984 185.055 0 185V82.118c6.188 0 9.155-2.293 12.593-4.96a23.76 23.76 0 0116.187-6.155 23.82 23.82 0 0116.208 6.156c3.438 2.666 6.404 4.96 12.592 4.96 6.189 0 9.155-2.294 12.593-4.96 9.23-8.212 23.165-8.212 32.395 0 3.438 2.666 6.404 4.96 12.593 4.96 6.188 0 9.154-2.294 12.592-4.96 9.23-8.212 23.165-8.212 32.395 0 3.438 2.666 6.405 4.96 12.593 4.96s9.155-2.294 12.593-4.96c9.23-8.212 23.164-8.212 32.395 0 3.438 2.666 6.404 4.96 12.592 4.96 6.189 0 9.155-2.294 12.593-4.96 9.24-8.206 23.174-8.206 32.415 0 3.418 2.666 6.385 4.96 12.592 4.96 6.208 0 9.155-2.294 12.593-4.96 9.23-8.212 23.165-8.212 32.395 0 3.438 2.666 6.405 4.96 12.593 4.96s9.154-2.294 12.592-4.96c9.231-8.212 23.165-8.212 32.395 0 3.438 2.666 6.405 4.96 12.593 4.96s9.174-2.294 12.593-4.96c9.24-8.206 23.174-8.206 32.414 0 3.438 2.666 6.405 4.96 12.593 4.96s9.155-2.294 12.593-4.96c9.23-8.212 23.164-8.212 32.395 0 3.438 2.666 6.404 4.96 12.592 4.96 6.189 0 9.175-2.294 12.593-4.96 9.24-8.206 23.174-8.206 32.415 0 3.438 2.666 6.404 4.96 12.592 4.96 6.189 0 9.155-2.294 12.593-4.96 9.24-8.206 23.174-8.206 32.415 0 3.438 2.666 6.404 4.96 12.592 4.96 6.189 0 9.155-2.294 12.593-4.96 9.24-8.206 23.174-8.206 32.415 0 3.418 2.666 6.385 4.96 12.592 4.96 6.208 0 9.155-2.294 12.593-4.96 9.23-8.212 23.165-8.212 32.395 0 3.438 2.666 6.405 4.96 12.612 4.96 6.208 0 9.155-2.294 12.593-4.96 9.23-8.212 23.165-8.212 32.395 0 3.438 2.666 6.405 4.96 12.593 4.96s9.174-2.294 12.612-4.96c9.23-8.212 23.165-8.212 32.395 0 3.438 2.666 6.405 4.96 12.612 4.96 6.208 0 9.155-2.294 12.593-4.96 9.23-8.212 23.165-8.212 32.395 0 3.438 2.666 6.405 4.96 12.612 4.96 6.208 0 9.155-2.294 12.593-4.96 9.23-8.212 23.165-8.212 32.395 0 3.438 2.666 6.405 4.96 12.612 4.96 6.208 0 9.155-2.294 12.593-4.96 9.23-8.212 23.165-8.212 32.395 0 3.438 2.666 6.405 4.96 12.593 4.96s9.174-2.294 12.592-4.96c9.24-8.206 23.175-8.206 32.415 0 3.438 2.666 6.405 4.96 12.593 4.96s9.174-2.294 12.592-4.96c9.24-8.206 23.175-8.206 32.415 0 3.438 2.666 6.405 4.96 12.593 4.96s9.174-2.294 12.612-4.96c9.23-8.212 23.165-8.212 32.395 0 3.438 2.666 6.405 4.96 12.612 4.96 6.208 0 9.155-2.294 12.593-4.96 9.24-8.206 23.174-8.206 32.415 0 3.438 2.666 6.404 4.96 12.592 4.96 6.189 0 9.175-2.294 12.613-4.96 9.24-8.206 23.174-8.206 32.415 0 3.437 2.666 6.404 4.96 12.592 4.96 6.188 0 9.155-2.294 12.593-4.96 9.24-8.206 23.174-8.206 32.414 0 3.438 2.666 6.405 4.96 12.613 4.96 6.208 0 9.154-2.294 12.592-4.96 9.247-8.209 23.188-8.209 32.435 0 3.438 2.666 6.404 4.96 12.612 4.96l.063 102.881z" fill="#98D2E3"/><path d="M770.081 24.189c5.245-20.51 23.158-13.235 28.403-10.584a.38.38 0 00.43-.108.361.361 0 00.025-.434c-2.89-3.58-11.341-13.08-19.278-10.777-8.412 2.457-11.183 12.151-11.876 14.705a.352.352 0 01-.245.256.362.362 0 01-.349-.082c-1.979-1.818-9.678-8.436-18.11-5.998-7.917 2.322-9.698 14.802-10.074 19.349a.348.348 0 00.24.398.36.36 0 00.433-.185c2.91-5.012 13.854-20.703 29.689-6.347a.37.37 0 00.455.252.36.36 0 00.257-.445zm80.67 20.801c14.822-15.424 26.445-.137 29.585 4.795.1.13.273.18.426.121a.373.373 0 00.237-.376c-.644-4.559-3.081-17.134-11.019-19.04-8.424-1.965-15.601 5.128-17.551 7.093a.35.35 0 01-.585-.137c-.742-2.575-3.998-12.242-12.423-14.266-7.937-1.965-15.738 8.194-18.352 11.986a.356.356 0 00.024.451.35.35 0 00.445.06c5.012-2.947 22.232-11.337 28.55 9.176a.35.35 0 00.663.138z" fill="#6B5C43"/><path d="M980.96 140.93a23.666 23.666 0 01-16.125-6.197c-3.433-2.647-6.396-4.94-12.575-4.94-6.18 0-9.142 2.293-12.575 4.94-9.218 8.234-23.152 8.234-32.37 0-3.413-2.647-6.376-4.94-12.555-4.94-6.18 0-9.162 2.293-12.575 4.94-9.211 8.231-23.14 8.231-32.35 0-3.433-2.647-6.396-4.94-12.575-4.94-6.18 0-9.162 2.293-12.595 4.94-9.21 8.231-23.139 8.231-32.35 0-3.433-2.647-6.395-4.94-12.575-4.94s-9.142 2.293-12.575 4.94A23.548 23.548 0 01751 140.93v-5.882c6.18 0 9.142-2.294 12.575-4.941 9.21-8.231 23.14-8.231 32.35 0 3.433 2.647 6.395 4.941 12.575 4.941s9.142-2.294 12.575-4.941c9.21-8.231 23.14-8.231 32.35 0 3.433 2.647 6.395 4.941 12.575 4.941s9.142-2.294 12.575-4.941c9.21-8.231 23.14-8.231 32.35 0 3.433 2.647 6.395 4.941 12.575 4.941s9.142-2.294 12.575-4.941c9.217-8.234 23.152-8.234 32.37 0 3.413 2.647 6.375 4.941 12.555 4.941l-.04 5.882zm344.04-5.883c6.18 0 9.142-2.294 12.575-4.941 9.21-8.231 23.14-8.231 32.35 0 3.433 2.647 6.395 4.941 12.575 4.941s9.142-2.294 12.575-4.941c9.217-8.234 23.152-8.234 32.37 0 3.413 2.647 6.375 4.941 12.555 4.941l-.04 5.882a23.666 23.666 0 01-16.125-6.196c-3.433-2.647-6.396-4.94-12.575-4.94-6.18 0-9.142 2.293-12.575 4.94a24.237 24.237 0 01-16.165 6.176 24.237 24.237 0 01-16.205-6.176c-3.413-2.647-6.376-4.94-12.555-4.94-6.18 0-9.162 2.293-12.575 4.94a24.231 24.231 0 01-16.185 6.174v-5.86zm-995 5.883a23.844 23.844 0 01-16.254-6.177c-3.447-2.647-6.422-4.941-12.628-4.941s-9.181 2.294-12.629 4.941c-9.25 8.231-23.238 8.231-32.488 0-3.448-2.647-6.422-4.941-12.628-4.941s-9.181 2.294-12.63 4.941c-9.25 8.231-23.237 8.231-32.487 0-3.448-2.647-6.423-4.941-12.629-4.941-6.206 0-9.18 2.294-12.628 4.941-9.25 8.231-23.238 8.231-32.488 0-3.448-2.647-6.423-4.941-12.629-4.941-6.206 0-9.18 2.294-12.628 4.941A23.844 23.844 0 0199 140.93v-5.882c6.226 0 9.18-2.294 12.629-4.94 9.25-8.232 23.237-8.232 32.487 0 3.448 2.626 6.344 4.94 12.63 4.94 6.284 0 9.18-2.294 12.628-4.94 9.256-8.235 23.25-8.235 32.507 0 3.428 2.646 6.403 4.94 12.629 4.94s9.18-2.294 12.609-4.94c9.25-8.232 23.237-8.232 32.488 0 3.447 2.646 6.422 4.94 12.628 4.94s9.2-2.294 12.649-4.94c9.25-8.232 23.237-8.232 32.487 0 3.448 2.626 6.462 4.94 12.629 4.94v5.882z" fill="#63B6CE"/><path d="M437.596 159.69a25.957 25.957 0 01-4.225-3.039 14.054 14.054 0 01-10.443-3.276 20.733 20.733 0 01-3.54-4.428 5.272 5.272 0 01-.293-.576 2.378 2.378 0 010-1.33 16.582 16.582 0 011.31-3.595 14.865 14.865 0 014.224-5.202 78.386 78.386 0 016.884-3.972 5.19 5.19 0 014.244-3.157c8.128-.933 16.262 1.705 22.353 7.248.235.218.47.417.685.655a1.844 1.844 0 01-.215 2.68l.215.18c.421-.036.84-.102 1.252-.2l6.453-2.203c1.702-.556 2.132-.378 2.367 1.45a37.23 37.23 0 01-.49 9.928c-.254.973-.488 1.152-1.466.834a47.299 47.299 0 00-7.393-2.284 6.51 6.51 0 00-1.427 0 2.57 2.57 0 01.137 3.436 23.212 23.212 0 01-5.085 3.157 32.265 32.265 0 01-8.038 2.144 5.633 5.633 0 01-3.911-1.25h-2.66a10.378 10.378 0 011.565 2.958 5.261 5.261 0 01-2.503-.159z" fill="#327A93"/><path d="M1254.613 137.724a25.866 25.866 0 01-4.247-3.063 14.021 14.021 0 01-10.453-3.343 20.672 20.672 0 01-3.524-4.436 4.002 4.002 0 01-.294-.577 2.445 2.445 0 010-1.353 15.817 15.817 0 011.292-3.482 14.335 14.335 0 014.229-5.212 71.307 71.307 0 016.89-3.979 5.196 5.196 0 014.248-3.163c8.13-.936 16.266 1.706 22.354 7.261.247.198.477.418.686.657a1.808 1.808 0 01-.216 2.686l.216.159a6.765 6.765 0 001.272-.2c2.153-.676 4.287-1.392 6.44-2.108 1.684-.557 2.134-.378 2.35 1.432a36.78 36.78 0 01-.47 9.948c-.255.975-.51 1.134-1.488.815a49.547 49.547 0 00-7.42-2.367 6.55 6.55 0 00-1.428 0c.906.934.965 2.416.137 3.422a22.997 22.997 0 01-5.11 3.183 31.827 31.827 0 01-8.045 2.149 5.693 5.693 0 01-3.915-1.254h-2.662a10.002 10.002 0 011.547 2.945 5.165 5.165 0 01-2.389-.12z" fill="#008077"/><path d="M1049.358 154.932c3.33.313 6.645-.747 9.199-2.94a18.191 18.191 0 003.1-3.905c.1-.162.187-.332.259-.508a2.152 2.152 0 000-1.19 13.919 13.919 0 00-1.137-3.064 12.615 12.615 0 00-3.72-4.587 62.75 62.75 0 00-6.064-3.501 4.572 4.572 0 00-3.738-2.784c-7.155-.824-14.314 1.502-19.672 6.39-.218.174-.42.368-.603.578a1.59 1.59 0 00.19 2.363l-.19.14a5.973 5.973 0 01-1.12-.175c-1.895-.595-3.773-1.225-5.667-1.855-1.482-.49-1.878-.333-2.068 1.26-.26 2.923-.12 5.87.414 8.754.224.858.448.998 1.31.718a43.601 43.601 0 016.528-2.084c.418-.046.84-.046 1.257 0a2.268 2.268 0 00-.12 3.011 20.237 20.237 0 004.496 2.802c2.27.938 4.65 1.574 7.08 1.89a5.01 5.01 0 003.445-1.103h2.342a8.801 8.801 0 00-1.36 2.592c.699.13 1.418.093 2.101-.105a22.762 22.762 0 003.738-2.697z" fill="#327A93"/><path d="M611.783 121.092c-.661-.178-1.322-.298-1.945-.536a36.709 36.709 0 00-4.841-1.827 4.742 4.742 0 00-3.83.786 4.943 4.943 0 00-2.004 3.424 12.164 12.164 0 000 3.971 5.159 5.159 0 002.437 3.462 4.963 4.963 0 004.155.41 15.753 15.753 0 003.072-1.35 5.755 5.755 0 013.364-1.171 15.938 15.938 0 00-1.36 2.204 2.77 2.77 0 00.27 2.483 2.651 2.651 0 002.14 1.21c2.645.14 4.706-.536 8.109-3.197 1.01.199 2.955.636 4.025.834l-.642.477c-.55.258-.918.803-.958 1.42a1.7 1.7 0 00.764 1.539 2.53 2.53 0 002.391.615 8.485 8.485 0 004.862-3.832c.865-.25 1.75-.423 2.644-.516a19.668 19.668 0 003.17-1.192 10.676 10.676 0 004.92-3.971c1.847-3.277-2.14-5.958-4.376-7.506-1.458-1.053-3.617-2.125-5.172-3.078-.858-2.396-3.144-3.942-5.64-3.813-1.61-.078-3.078.942-3.596 2.502 0 .179 0 .258-.137.397-.136.14-2.8 1.092-3.402 1.291a19.856 19.856 0 00-5.503-1.529c-3.092 0-4.064 2.125-3.364 4.964.152.42.34.826.564 1.212l-.117.317z" fill="#008077"/><path d="M696.356 146.814c.486-.14.993-.239 1.48-.418a27.507 27.507 0 013.62-1.352 3.54 3.54 0 012.908.564 3.693 3.693 0 011.512 2.598c.165.98.165 1.982 0 2.962a3.855 3.855 0 01-1.818 2.594 3.707 3.707 0 01-3.108.31 10.957 10.957 0 01-2.316-1.015 4.321 4.321 0 00-2.512-.875c.382.527.721 1.086 1.012 1.67.256.618.19 1.325-.174 1.882-.365.557-.98.889-1.636.883a8.41 8.41 0 01-6.094-2.406c-.76.139-2.22.477-3.018.636l.487.358c.413.191.688.6.717 1.062a1.26 1.26 0 01-.58 1.145 1.918 1.918 0 01-1.792.457 6.327 6.327 0 01-3.66-2.863 10.454 10.454 0 00-1.947-.398 14.465 14.465 0 01-2.395-.894 7.91 7.91 0 01-3.68-2.923c-1.401-2.446 1.597-4.415 3.271-5.628 1.09-.795 2.726-1.61 3.894-2.306.63-1.814 2.342-2.999 4.225-2.923 1.24-.044 2.352.774 2.706 1.988 0 .14 0 .18.117.299l2.55.974a14.211 14.211 0 014.128-1.153c2.317 0 3.057 1.59 2.511 3.718a5.464 5.464 0 01-.408.915v.139zm-317.728-21.081c-.487-.139-.994-.238-1.461-.417a28.988 28.988 0 00-3.642-1.372c-1-.24-2.054-.03-2.895.573a3.692 3.692 0 00-1.506 2.588 9.007 9.007 0 000 2.982 3.973 3.973 0 001.83 2.602 3.828 3.828 0 003.117.38c.797-.26 1.566-.6 2.298-1.014a4.381 4.381 0 012.531-.875 10.97 10.97 0 00-1.012 1.65 2.023 2.023 0 00.174 1.88c.365.557.98.89 1.637.883a8.338 8.338 0 006.076-2.385c.76.139 2.22.477 3.038.616l-.487.358a1.272 1.272 0 00-.725 1.066 1.28 1.28 0 00.569 1.16c.488.457 1.17.63 1.811.457a6.446 6.446 0 003.642-2.862 9.276 9.276 0 011.947-.398 17.45 17.45 0 002.395-.894 8.147 8.147 0 003.681-2.922c1.383-2.465-1.616-4.433-3.291-5.646-1.09-.795-2.707-1.59-3.895-2.306-.631-1.81-2.346-2.987-4.226-2.902-1.215-.063-2.323.71-2.707 1.888v.299c-.194 0-2.103.815-2.55.954a15.083 15.083 0 00-4.13-1.153c-2.317 0-3.076 1.61-2.531 3.737.11.32.254.626.428.914l-.116.16zm736.75-7.906c.486-.139.99-.238 1.476-.417 1.172-.541 2.38-1 3.613-1.37 1-.24 2.053-.032 2.895.571a3.71 3.71 0 011.514 2.587c.165.98.165 1.98 0 2.96a3.97 3.97 0 01-1.836 2.554 3.808 3.808 0 01-3.078.367 12.035 12.035 0 01-2.311-1.013 4.059 4.059 0 00-2.506-.874c.382.52.72 1.07 1.01 1.648.255.617.19 1.324-.174 1.88a1.93 1.93 0 01-1.632.882 8.345 8.345 0 01-6.08-2.384l-3.01.616.485.357c.412.192.687.6.716 1.061a1.26 1.26 0 01-.58 1.145 1.912 1.912 0 01-1.787.477 6.354 6.354 0 01-3.651-2.881 10.49 10.49 0 00-1.943-.378c-.82-.233-1.62-.539-2.389-.914a7.79 7.79 0 01-3.748-2.9c-1.399-2.464 1.592-4.43 3.263-5.642 1.088-.795 2.72-1.59 3.884-2.305.634-1.808 2.339-2.99 4.215-2.92 1.235-.037 2.341.777 2.7 1.986.032.102.071.202.117.298.174 0 2.078.835 2.544.974a14.161 14.161 0 014.118-1.153c2.311 0 3.05 1.61 2.505 3.735a6.288 6.288 0 01-.408.914l.078.14z" fill="#EC7175"/><path d="M48.65 126.834c-.487-.14-.994-.239-1.481-.418a25.034 25.034 0 00-3.626-1.372 3.55 3.55 0 00-2.912.564 3.692 3.692 0 00-1.514 2.598 9.447 9.447 0 000 2.963 3.97 3.97 0 001.85 2.564c.94.555 2.064.685 3.102.358a12.61 12.61 0 002.32-1.014 4.236 4.236 0 012.515-.894 11.812 11.812 0 00-1.014 1.67c-.253.61-.192 1.31.164 1.864.356.555.96.892 1.61.9a8.351 8.351 0 006.083-2.386l3.042.616-.488.358c-.413.191-.69.6-.718 1.062a1.26 1.26 0 00.582 1.145 1.92 1.92 0 001.793.457 6.257 6.257 0 003.646-2.863c.638-.186 1.29-.312 1.95-.378a15.273 15.273 0 002.398-.914 7.977 7.977 0 003.685-2.903c1.404-2.466-1.599-4.434-3.276-5.647-1.11-.796-2.73-1.61-3.899-2.307-.618-1.815-2.329-3.003-4.211-2.923a2.751 2.751 0 00-2.71 1.89l-.117.298c-.195 0-2.106.835-2.554.974a14.42 14.42 0 00-4.133-1.153c-2.32 0-3.061 1.59-2.535 3.718.12.316.263.622.43.914l.019.259z" fill="#008077"/><path d="M1204.278 152.225a1.77 1.77 0 00.51-1.16c0-1.002-.648-3.027-.805-3.93-.156-.905-.313-2.104.609-2.38 2.197-.668 3.315-.648 3.55.57.275 1.573.726 4.168 1.04 5.78.231.415.62.72 1.079.845 1.314-.256 2.49-.334 3.786-.708.588-.177 1.373-.236 1.667.295.294.53.628 3.066-.49 3.263-1.59.255-5.12 1.454-7.102.943a.862.862 0 00-.921.236c-1.962 1.789-6.846 6.585-7.357 7.234-.51.648-1.04 1.218-.725 1.847a3.922 3.922 0 002.49 1.455c1.276 0 4.061-3.361 5.2-4.678.392-.472.843-1.239 1.765-1.12.608 0 1.961 1.356 1.608 2.397-.353 1.042-2.844 3.715-2.844 3.97 0 .256 2.275 1.966 2.236 2.93-.04.963-.922 2.24-2.118 1.965a17.332 17.332 0 01-2.394-2.123c-.45-.432-2.275.944-3.08 1.081a17.754 17.754 0 01-5.63-2.437c-.548-.354-5.707 3.931-5.884 5.897-.177 1.965 2.295 8.825 1.216 9.828a5.74 5.74 0 01-5.885 1.415c-1.49-.57-1.961-3.086-2.138-4.678-.902-6.015-4.59-12.285-10.534-11.931-1.961.118-5.335 1.061-7.316 1.199a6.836 6.836 0 01-4.14-1.14 7.863 7.863 0 01-2.353-3.499c-.216-.53-.49-.629-1.138-.295-1.55.786-8.2.63-8.18-1.965 0-.787.235-1.73.98-1.966a2.897 2.897 0 011.354 0c1.6.25 3.235.108 4.767-.413.745-.275-2.295-4.069-.961-5.445a2.86 2.86 0 012.923-1.041c1.137.471 1.569 1.965 1.961 3.027 2.629 7.135 4.12 7.135 5.257 7.174 2.366-.28 4.707-.74 7.003-1.376.981-.275 1.06-.472.805-1.612-.53-2.378-1.354-4.678-1.844-7.036-.275-1.337-.334-2.85-1.962-3.322-.55-.157-4.355-.511-5.65-.885a7.413 7.413 0 01-4.864-3.046 39.85 39.85 0 01-2.825-7.018c0-.884 2.119-2.516 2.923-1.808.804.708 2.903 5.582 3.668 6.054a6.6 6.6 0 006.218 1.062 87.066 87.066 0 00-1.47-11.165c-.217-1.061-2.669-1.966-3.453-2.516-.785-.55-1.177-2.398-.883-7.096 0-1.238 2.707-1.16 3.296-.51.588.648.392 3.616.902 4.343a2.507 2.507 0 002.57.472c.863-.315 1.196-.944 1.628-4.305.117-.963 3.688-.766 3.746.865a6.848 6.848 0 01-2.334 6.113c-1.412 1.061-1.314 1.553-1.04 2.634.275 1.081 1.217 5.897 1.354 6.408.137.51.373.53.628.413a39.622 39.622 0 004.864-2.752c1.962-1.632.275-4.108 1.648-5.583.314-.334 3.59-.805 3.767.217a18.304 18.304 0 01-.49 6.349 11.898 11.898 0 01-4.61 4.461c-.942.55-5.219 1.573-4.767 3.362.294 1.199 1.687 6.624 2.707 6.329a15.175 15.175 0 005.041-3.126c.765-.59 1.157-1.533 1-3.93 0-1.436 3.924-1.809 3.924-.237a9.49 9.49 0 01-1.08 6.566 12.424 12.424 0 01-3.922 3.42c-.746.353-3.669 1.965-3.512 2.693.294 1.179 1.805 4.894 2.138 5.621.981 2.103 3.374 4.462 5.885 3.4.667-.275 6.866-5.13 7.18-6.21.215-.708-2.786-7.863-3.198-9.573a5.534 5.534 0 01-.216-1.789 5.898 5.898 0 012.335-3.538c.745-.688 2.452-2.496 3.61-2.182.343.138.647.362.882.649 2.51 2.634-2.923 3.931-2.158 6.27a51.899 51.899 0 001.432 3.794c.53 1.238.726 2.673 2.177 1.376.962-.708 3.826-3.656 4.944-4.698zm-652.238 5.381a1.59 1.59 0 00.416-.983 32.921 32.921 0 00-.674-3.383c-.139-.846-.278-1.77.515-1.967 1.864-.57 2.816-.55 2.994.472.258 1.337.635 3.52.912 4.878.194.341.514.595.893.708a30.158 30.158 0 003.232-.61c.495-.138 1.17-.197 1.427.256.258.452.535 2.596-.436 2.733a17.98 17.98 0 01-5.948.807.698.698 0 00-.774.196c-1.645 1.495-5.829 5.527-6.265 6.077-.436.551-.892 1.043-.615 1.554a3.416 3.416 0 002.122 1.24c1.07 0 3.45-2.833 4.421-3.934.337-.413.714-1.043 1.507-.944.793.098 1.646 1.14 1.348 1.966-.297.826-2.379 3.206-2.399 3.423-.02.216 1.983 1.612 1.884 2.458-.1.846-.773 1.967-1.785 1.613a13.306 13.306 0 01-1.982-1.79c-.377-.354-1.983.787-2.618.924a15.65 15.65 0 01-4.778-2.065 11.517 11.517 0 00-5.096 4.917c-.218 1.357 1.983 7.415 1.031 8.339a4.886 4.886 0 01-4.976 1.2c-1.27-.472-1.606-2.596-1.805-3.934-.773-5.074-3.965-10.325-8.962-10.03-1.685.098-4.52.885-6.206 1.003a5.984 5.984 0 01-3.51-.964 6.507 6.507 0 01-1.982-2.93c-.178-.452-.436-.531-.991-.256-1.309.65-6.94.531-6.94-1.613 0-.649.198-1.455.833-1.652a2.278 2.278 0 011.15 0c1.362.215 2.756.1 4.064-.334.615-.236-1.982-3.422-.832-4.582a2.43 2.43 0 012.498-.866c.971.394 1.328 1.554 1.685 2.537 2.24 6.019 3.51 5.9 4.481 6.038 2.011-.229 4-.617 5.949-1.16.813-.236.892-.394.674-1.357-.436-1.967-1.15-3.934-1.567-5.9-.218-1.121-.277-2.4-1.665-2.793-.456-.138-3.708-.413-4.798-.747a6.411 6.411 0 01-4.144-2.557 33.473 33.473 0 01-2.38-5.9c0-.748 1.805-2.124 2.459-1.515.654.61 2.498 4.681 3.133 5.094a5.648 5.648 0 005.274.885 73.577 73.577 0 00-1.23-9.381c-.198-.905-2.28-1.652-2.934-2.124-.654-.472-1.011-1.967-.773-5.9 0-1.043 2.3-.984 2.815-.433.516.55.317 3.029.754 3.658.605.523 1.45.674 2.2.393.734-.275 1.012-.806 1.369-3.618.119-.807 3.132-.65 3.192.708a5.758 5.758 0 01-1.983 5.152c-1.21.905-1.11 1.299-.892 2.203.218.905 1.05 4.976 1.15 5.389.099.413.317.452.535.354a33.905 33.905 0 004.144-2.301c1.646-1.377.218-3.461 1.388-4.7.258-.276 3.054-.689 3.192.177.19 1.793.05 3.606-.416 5.349a9.879 9.879 0 01-3.827 3.638c-.793.453-4.441 1.338-4.064 2.832.257 1.023 1.447 5.566 2.3 5.33a12.806 12.806 0 004.282-2.635c.655-.511.992-1.298.853-3.285 0-1.2 3.272-1.514 3.41-.177a7.93 7.93 0 01-.932 5.507 10.485 10.485 0 01-3.35 2.872c-.635.295-3.113 1.75-2.975 2.281a44.815 44.815 0 001.825 4.72c.812 1.77 2.855 3.757 4.996 2.872a30.308 30.308 0 006.107-5.232c.178-.61-2.36-6.628-2.716-8.044a4.352 4.352 0 01-.179-1.514 4.836 4.836 0 011.983-2.97c.634-.59 2.082-2.104 3.053-1.829.307.104.576.296.774.55 2.121 2.184-2.499 3.364-1.844 5.252a43.955 43.955 0 001.21 3.186c.435 1.042.634 2.262 1.863 1.16.555-.649 2.994-3.127 3.946-3.992z" fill="#6B5C43"/></g></svg>