<?xml version="1.0" encoding="utf-8"?>
<!-- Generator: Adobe Illustrator 24.1.0, SVG Export Plug-In . SVG Version: 6.00 Build 0)  -->
<svg version="1.1"
	 id="svg8" xmlns:cc="http://creativecommons.org/ns#" xmlns:dc="http://purl.org/dc/elements/1.1/" xmlns:rdf="http://www.w3.org/1999/02/22-rdf-syntax-ns#" xmlns:svg="http://www.w3.org/2000/svg"
	 xmlns="http://www.w3.org/2000/svg" xmlns:xlink="http://www.w3.org/1999/xlink" x="0px" y="0px" viewBox="0 0 1394.1 280.4"
	 style="enable-background:new 0 0 1394.1 280.4;" xml:space="preserve">
<style type="text/css">
	.st0{fill:#61B948;}
</style>
<path class="st0" d="M1378,197.3c-8.9,0-16.1,5.5-16.1,12.3c0,6.8,7.2,12.3,16.1,12.3c8.9,0,16.1-5.5,16.1-12.3
	C1394.1,202.8,1386.9,197.3,1378,197.3L1378,197.3z"/>
<path class="st0" d="M1296.9,178c0,2.1,0,4.4,0,6.2c0,14.8-8.8,21-17.2,21c-8.4,0-17.2-6.1-17.2-21c0-5.6,0-15.1,0-15.1
	s0-8.8,0-14.4c0-14.8,8.8-20.8,17.2-20.8c8.4,0,17.2,6.1,17.2,20.8c0,2.2,0,4.3,0,6.3h50.4c-5.3-24.8-33.5-43.7-67.5-43.7
	c-37.8,0-68.5,23.4-68.5,52.2c0,28.9,30.7,52.2,68.5,52.2c34.1,0,62.3-19,67.6-43.9H1296.9z"/>
<path id="path4166" class="st0" d="M1150.8,119.4c15.7-0.4,47.6,9.9,47.4,46.7c0,6.5,0,50.6,0,50.6h-41.8c0,0,0-55.3,0-61.1
	c0-8.1-7.8-17.1-19.2-17.1c-11.5,0-20,9-20,17.1c0,4,0,61.1,0,61.1h-41.8l0-93l41.8,0c0,0,0,7.5,0,9.8
	C1125.4,125.8,1137,119.8,1150.8,119.4L1150.8,119.4L1150.8,119.4z"/>
<polygon id="polygon4152_2_" class="st0" points="1002.7,59.7 1051.9,59.7 1051.9,218.9 1002.8,218.9 "/>
<polygon class="st0" points="938.3,111.2 889.1,111.2 857.7,137 857.7,59.7 808.5,59.7 808.6,218.9 857.7,218.9 857.7,193.1 
	889.1,218.9 938.3,218.9 872.7,165 "/>
<path id="path4160_2_" class="st0" d="M746,184.2c0,14.8-8.8,21-17.2,21c-8.4,0-17.2-6.1-17.2-21l0-29.5c0-14.8,8.8-20.8,17.2-20.8
	c8.4,0,17.2,6.1,17.2,20.8C746,160.4,746,178.6,746,184.2z M728.8,117.4c-37.8,0-68.5,23.4-68.5,52.2c0,28.9,30.7,52.2,68.5,52.2
	c37.8,0,68.5-23.4,68.5-52.2C797.3,140.8,766.7,117.4,728.8,117.4L728.8,117.4z"/>
<path id="path4160" class="st0" d="M597.4,184.2c0,14.8-8.8,21-17.2,21c-8.4,0-17.2-6.1-17.2-21l0-29.5c0-14.8,8.8-20.8,17.2-20.8
	c8.4,0,17.2,6.1,17.2,20.8C597.4,160.4,597.4,178.6,597.4,184.2z M580.2,117.4c-37.8,0-68.5,23.4-68.5,52.2
	c0,28.9,30.7,52.2,68.5,52.2c37.8,0,68.5-23.4,68.5-52.2C648.7,140.8,618,117.4,580.2,117.4L580.2,117.4z"/>
<polygon id="polygon4152" class="st0" points="328.3,218.9 328.3,59.7 377.9,59.7 446.5,170.7 446.5,59.7 495.7,59.7 495.7,218.9 
	446.6,218.9 377.6,107.9 377.6,218.9 "/>
<path class="st0" d="M123,0.6c-190.4,30.3-147,307,43.3,277.6C340.9,238.4,300.9-14.4,123,0.6z M202.7,206c0-0.1,0-0.1,0-0.2
	c2.2-4.2,3.4-9,3.4-14.1c0-17.1-13.9-31-31-31s-31,13.9-31,31c0,16.2,12.4,29.5,28.3,30.9c-33.8,12-93.6,5-125.7-13.1
	c4.9-9.2,11.8-27,14.6-37.3c3.5-23.1,9.9-67.4,23-78.6c22.2-29.1,77.3-32.1,98.5-0.5c1.3-0.1,7.3-19.6,9.6-30.6
	c2.9-14.1,3.5-16.6,4.5-16.7c0.4,0,4.3,2.1,8.7,4.7c6.8,4.1,11.2,7.1,16.2,10.7c-7.8,8.2-27.7,34.1-28.8,38.5c0,0.3,1.9,0.9,4.2,1.4
	c22.5,3.8,35.7,29,34.9,51.7C233.3,171.4,216.3,198.7,202.7,206z"/>
</svg>
