<svg xmlns="http://www.w3.org/2000/svg" width="400" height="399.853" viewBox="0 0 105.83333 105.79444" version="1.1" id="svg27">
  <defs id="defs31"></defs>
  
  <g transform="matrix(0.0353913,0,0,-0.0353913,0,106.17391)" id="g25">
    <path d="M 1489.1217,2944.6545 C 1177.1214,2923.6546 777.56544,2788.8052 518.56524,2577.8055 198.47035,2238.5355 23.718494,1935.9594 0,1524.2202 V 1424.2153 L 99.698584,1312.0756 C 152.69858,739.07645 465.57167,308.34698 1015.5721,128.34721 c 451.0002,-147.999831 891.4427,-109.707466 1279.443,161.29214 309.2558,235.61361 545.9961,538.45063 619.8423,891.72595 18,86.9999 81.1416,285.845 74.1417,292.8451 l -4.9952,97.0019 -62.9878,172.7064 c -19,318.9995 -172.5845,550.4403 -423.5848,800.4398 -361.9267,294.688 -580.4788,430.7385 -1008.3096,400.296 z" fill="#f8d207" id="path21"></path>
    <path d="m 1518.002,2999.2154 c -16,2.0005 -75.0049,0 -130.0048,-3.9989 C 1075.9973,2974.2168 785.99161,2856.2213 526.99181,2645.2215 237.99207,2409.2216 28.991171,2001.2248 5.9911853,1628.2249 L 0,1524.221 l 56.00098,31.9922 56.99696,32.0068 49.99518,-30.9961 c 27.99997,-17 52.00877,-31.0107 54.00874,-31.0107 2.0002,0 5.9902,36.0098 9.99019,80.0096 52,627.9999 553.00457,1121.9968 1180.00385,1166.9968 l 89.0041,5.9912 -6.0057,-53.9942 c -4.0002,-29.9999 -7.0021,-75.001 -7.0021,-101.0009 0,-58 -15.988,-61.9971 -47.9883,-11.9971 -28,44 -35.0097,40.0058 -20.0097,-8.9941 6.0001,-19.9999 9.0099,-40.0079 5.0097,-43.0079 -2.9998,-3.9998 -32.0135,14.9971 -64.0137,41.997 -95.9998,82.0001 -99.9988,82.0108 -33.999,1.011 35.0004,-41.9999 61.0079,-80.0125 58.008,-83.0127 -2.9999,-2.9998 -22.0079,-0.9899 -43.0077,5.0099 -50.0001,14.0001 -52.9904,8.0009 -9.9903,-18.9991 64.9998,-39 49.9902,-47.0048 -110.0097,-55.0048 -80.0001,-4 -143.9873,-9.001 -141.9873,-11.001 1.9976,-2.0002 65.9876,-6.9932 141.9873,-12.9932 76,-4.9999 141.0086,-12.0107 144.0087,-16.0105 3.9999,-4.0002 -9.0078,-19.9913 -28.008,-35.9914 -37,-31.9999 -36.9969,-32.0077 33.003,-13.0079 29.0001,9 19.0021,-11.9951 -37.998,-79.9949 -30,-35 -55.0047,-68.001 -55.0047,-71.001 0,-4 26.0075,14.9971 58.0077,41.997 100.9999,85 96.0001,83.0078 89.9997,43.0079 -3.9998,-19.0001 -10.0075,-44.0049 -13.0074,-55.005 -4.0001,-11 7.0046,-1.0018 25.0047,22.9981 17.9999,24.0001 36.0009,39.9952 41.001,34.9952 4.0002,-4.0001 10.9999,-68.9981 14.9998,-142.998 7.9999,-151.9999 16.9931,-141.9961 27.9933,29.0038 2.9998,63 9.0118,117 12.0119,120 2.9999,3.0001 11.9911,-3.004 20.9911,-14.0039 8,-11 22.9988,-31.0001 33.999,-44.9999 l 18.999,-24.9904 -15,49.9952 c -8,27.0001 -11.9903,50.998 -9.9903,52.998 2.0005,3 40.997,-25.999 86.997,-63.9989 l 82.998,-68.9942 -38.994,49.995 c -22.0003,28.0001 -53.009,64.9942 -69.0087,83.9943 -15.0003,17.9998 -25.9942,35.0125 -23.9943,38.0126 2.9999,2.0001 21.9932,-0.018 42.993,-6.0059 21.0001,-6 39.0011,-9.0019 41.0013,-7.0019 1.9977,1.9998 -11.9922,13.997 -31.9923,26.997 -19.0001,13 -35.0097,26.9999 -35.0097,29.9999 0,10.0002 57.0086,19.0098 129.0087,20.0098 36.0001,1.0003 90.996,3.9981 120.9957,7.9982 47.0002,6 32.997,8 -93.0027,15 -80.9998,4.9998 -150.0025,11.9922 -153.0027,16.992 -2.0005,5 15.0124,23.0049 38.0127,40.0049 32.9999,23.9999 36.9881,30.0049 17.988,25.0049 -13.9998,-4.0001 -37.9901,-9.0078 -54.99,-13.0078 -34.9998,-7 -36.008,-9.9921 46.9923,88.0077 26.9998,31.0001 48.0027,59.9884 48.0027,62.9884 0,4.0001 -31.9971,-19.9942 -71.997,-53.9941 -62.9999,-53 -88.0077,-69.001 -88.0077,-56.0011 0,2.0006 7,22.0001 15,45.0002 16.9999,49.9999 8.0019,53.0056 -22.998,6.0057 -12.0002,-19.0001 -25.9962,-35.0097 -30.9963,-35.0097 -7.9997,0 -21.0057,102.0027 -21.0057,168.0028 0,31.0001 1.0087,32.0069 43.0077,32.0069 56.9998,0 205.9971,-25.0098 296.997,-50.0097 104.0002,-29.0001 299.9949,-125.9922 394.9949,-196.9923 106.9998,-79.9999 257.9979,-240.9958 322.9977,-345.9958 95.0002,-152 160.0137,-333.0038 184.0136,-509.0038 l 11.9971,-88.0077 52.998,-34.9951 c 28.9999,-19 56.9925,-34.9952 61.9922,-34.9952 4.9996,0 31.0012,11.9932 56.0007,27.9932 l 46.0108,26.9971 -3.9988,80.0096 c -19.0004,318.9998 -181.0117,659.9899 -432.0116,909.9898 -248.9997,249.9999 -593.9987,411.0008 -918.9983,431.0009 -45,3 -93.9911,6.0019 -110.9913,7.0017 z m 5.0099,-445.1512 c 16.0469,-2.8436 31.4852,-9.3485 44.9851,-19.8484 93.9998,-74.0001 48.003,-207.9932 -71.997,-207.9932 -45.0001,0 -76.998,20.0001 -97.9981,60 -18.9998,36.9999 -18.9998,63.9892 0,103.9892 23.2501,48 76.8691,72.3838 125.01,63.8524 z m -491.6893,-377.5778 c -21.4174,-0.5162 -43.32111,-6.5127 -64.32118,-19.2627 -53.00026,-32 -74.00399,-67.999 -74.00399,-123.999 0,-92.9999 66.006,-155.0088 156.00577,-144.0087 56.0001,6 97.9932,37.0078 117.9933,88.0078 40.6249,100.7499 -42.8648,201.4969 -135.6739,199.2626 z m 960.1607,-0.1894 c -25.6094,1.0469 -51.9795,-5.0828 -76.4795,-20.0829 -68,-41.9999 -92.002,-131.9922 -52.0018,-196.992 72.9999,-120 252.9968,-79.0001 266.9968,59.9998 8.2497,86.25 -61.6877,153.9346 -138.5155,157.0751 z m -362.1679,-307.7494 c -104.8749,5.1717 -211.5753,4.1748 -318.3252,-3.3253 -236.9996,-16.0001 -502.99066,-75.0097 -695.99057,-155.0096 -100.99995,-41 -223.00481,-104.9902 -220.00484,-114.9902 2.00021,-3.0001 24.00591,-25.0069 51.00588,-47.0069 l 46.99217,-41.001 73.00769,39.0088 c 136.00002,74 242.99225,99.9962 301.9922,75.9962 43.99974,-19.0001 75.00197,-80.0069 82.00172,-167.0069 l 6.00599,-56.997 -48.99903,-7.9981 c -79.00009,-13 -203.99912,-7.9951 -273.99892,10.0049 -82.99994,21 -192.00773,73 -253.00764,120 l -48.99893,37.0018 -34.99509,-27.0116 -35.0098,-26.001 44.00386,-45 c 23.00002,-25 80.99806,-74.9911 127.99799,-110.9912 46.99999,-35.9999 88.99899,-69.0077 93.99893,-73.0077 4.00003,-4 -11.98727,-36.0011 -36.98724,-71.001 -47.99995,-67.9999 -127.00188,-212.99013 -127.00188,-234.99015 0,-31.99995 -21.00288,-6.99607 -48.00286,59.00385 -35.99997,87 -65.99798,201.9961 -82.99796,315.9961 l -11.99709,82.998 -53.01265,36.0058 -53.99419,35.9912 -56.000868,-37.998 L 0,1424.2166 7.0019979,1354.2118 C 60.00196,781.21198 473.99868,266.21394 1023.9982,86.214136 c 451,-148.0004 942.0045,-76 1330.0043,195.000104 116,80.9998 299.9922,268.00864 376.992,384.00857 108.9998,162.99985 189.9959,352.99789 225.9958,532.99779 18.0001,87 39.0068,268.9911 32.0067,275.9911 -2.9996,2.0005 -26.994,-8.9863 -53.9937,-25.9863 l -49.0141,-30 -52.9976,33.999 c -29.9999,19 -57.9923,33.999 -61.9923,33.999 -3.9999,0 -7.9981,-26.0038 -7.9981,-59.0038 0,-119 -43.0115,-301.001 -102.0116,-431.00083 l -28.9893,-64.99515 -63.0028,129.99028 c -33.9997,72 -74.9999,149.998 -89.9999,172.9979 -15.0001,24 -25.9942,45.0107 -23.9941,46.0108 34.9998,24.9999 165.9861,137.9892 205.9861,178.9891 l 54.0087,55.0049 -36.0058,26.9971 -34.9951,27.0116 -43.0079,-37.0019 c -51.9996,-43.9999 -181.9879,-108.0058 -257.988,-126.0057 -56.9998,-13.0001 -242.0007,-15.9991 -281.0007,-3.9991 -19.9999,6.9999 -21.0068,12.0019 -17.0068,82.0019 5.9998,85 24.0057,118.001 81.0057,146.001 35.0001,17.9999 41.9903,18.0028 114.9901,3.0028 46.0002,-8.9999 112.0109,-33.0106 166.0107,-61.0106 48.9999,-25 89.9997,-43.9971 89.9997,-41.9971 1.0004,1.0002 17.9907,21.0039 39.9904,44.0038 l 39.0088,41.9972 -99.0086,48.9989 c -234.7498,117.7496 -533.0506,188.8151 -847.6754,204.3306 z m -15.3221,-162.334 c 49.9998,0 100.9999,-26.9922 119.9997,-61.9921 7,-13.0001 12.001,-44.005 11.0013,-70.0049 -2.0005,-85 -68,-183.9931 -180,-267.9931 l -64.9953,-50.0097 -28.0078,18.0029 c -106.9996,67.9999 -200.9899,180.997 -219.99,266.997 -22,98.9999 37.996,170.0117 135.996,162.0116 42.0002,-4 54.9988,-10.0127 78.999,-38.0126 l 28.0078,-33.9991 37.998,37.0019 c 31.9999,32.0001 43.991,37.9981 80.9913,37.9981 z m 621.6353,-90.8642 c -15.1252,-0.6251 -29.6326,-6.6347 -48.6329,-18.1348 -41.9998,-24.9999 -61.0038,-79.9921 -44.004,-121.9921 25.0003,-58.9999 88.9981,-85.0078 142.9981,-58.0079 76.0001,39 77.007,147.9991 2.0062,183.999 -21.4999,10.0001 -37.243,14.7607 -52.3681,14.1358 z M 754.64302,1605.3442 c -16.50418,0.4068 -34.02539,-3.3166 -51.65034,-12.129 -30.99994,-15.0001 -64.00087,-79.9912 -56.00097,-110.9912 23,-92 150.00088,-115.0096 191.00085,-35.0098 40.62501,77.1876 -11.83035,156.3653 -83.34954,158.13 z M 1178.1291,1474.724 c 9.625,0.4999 14.8672,-4.5019 18.8671,-14.5019 18.0002,-46.0001 -52.0009,-115.0048 -161.0007,-160.0048 -86.99989,-36 -90.00486,-34.001 -85.00506,33.999 2.0005,30.9999 7.00116,60.003 11.001,63.003 2.99988,3 35.00123,13.9979 71.00106,22.9979 36,10 81.0048,26.0059 100.005,36.0058 21.4999,12 35.5067,18.001 45.1316,18.501 z m 637.7487,-0.2486 c 10.6249,-1.2498 28.1201,-8.251 63.1202,-22.251 31.9998,-13 83.0018,-29.0059 112.002,-36.0059 49.9998,-11 52.0018,-12.9999 52.0018,-44.9999 0,-18 3.0019,-46.9952 7.0019,-64.9952 6.0002,-31.9999 4.9872,-33.001 -23.0127,-26.0009 -52,13.001 -148.9873,61.9922 -186.9872,95.9922 -49.0002,43 -62.0107,67.0009 -46.0108,86.0009 7.4999,8.9999 11.2598,13.5108 21.8848,12.2608 z m 240.1173,-212.2558 c 3.9998,4.9999 62.0024,-4.002 153.0027,-22.002 15.0001,-2.0002 26.997,-19.9932 41.997,-57.9931 49.9998,-130 101.9971,-417.00966 101.9971,-560.0097 0,-114.99996 -41.9998,-94.99703 -134.9997,63.00302 -24.0003,40.99989 -55.9907,106.00114 -69.9907,146.00106 l -27.0117,71.99675 -72.9927,-48.99874 c -41.0005,-27.00013 -72.0052,-54.99626 -70.005,-60.99631 11,-33.99986 105,-395.99966 105,-404.99961 0,-6.00006 -13.996,-19.00776 -30.9963,-28.00803 -38.9999,-19.9998 -34.0058,-25.997 -96.0058,138.0028 -25.9999,70.00023 -49.9939,127.99834 -53.9939,127.99834 -3.0002,0 -14.9933,-32.99707 -27.9933,-71.99732 -26.9999,-88.99979 -88.0106,-244.99882 -106.0105,-273.99882 -12.0001,-18.9999 -79.9961,-41.9959 -90.9963,-30.996 -1.9977,2.0005 7.0059,35.9961 21.0057,75.996 55.0002,164.00012 102.9933,415.00573 87.9933,471.00563 -2.9999,9.99907 -24.9914,25.99055 -50.9913,35.99018 -70.9999,26.00016 -142.0116,75.00116 -192.0111,131.00106 l -45.9966,51.00589 -21.0055,-33.0029 c -32.0002,-48.99986 -99.9872,-100.00588 -186.9873,-141.00576 l -78.999,-36.98733 6.9873,-71.00101 c 9.0002,-92.99994 50.0117,-277.99981 87.0117,-389.99986 16,-48.9999 26.9942,-90.9989 23.994,-93.9991 -18.0002,-17.9999 -293.9969,61.9972 -401.99677,116.9971 -106.99994,55.00021 -107.99718,30.9912 3.003,245.99111 53.99995,104.00008 92.99707,190.01185 86.99677,192.01176 -6.0001,2.00051 -39.99996,22.9921 -74.99978,46.99205 L 875.99071,894.2216 858.00235,842.21989 C 831.00234,764.21996 747.00251,606.21907 708.00236,561.21904 l -33.99901,-40.00499 -1.01211,85.00502 c 0,151.9997 52.99792,538.00343 82.99781,599.00353 10.00011,19 25.01093,27.0019 76.011,37.0019 34.99964,8 68.9999,14.9883 74.99995,17.9883 34.99982,14 38.99205,7.0078 31.99203,-61.9922 -4.00014,-37 -13.00206,-99.0068 -22.002,-137.0067 l -13.98931,-69.99031 26.99729,-22.00194 c 119.99979,-96.99977 363.00359,-59.00092 509.00349,78.99905 l 52.9981,49.995 67.998,-52.9979 c 84.9999,-65.00002 188.992,-115.99889 256.992,-123.99889 66,-8.99995 156.0117,8.00479 222.0115,40.00472 28.0001,14.00005 53.9971,24.99029 56.9971,24.99029 3,0 8.993,-15.99515 12.9932,-34.99499 2.9999,-19.00014 11.999,-34.99531 18.999,-34.99531 16.9999,0 82.0118,72.99027 102.0117,114.99028 16.9999,35 11.9951,65.0097 -10.005,65.0097 -6.9996,0 -38.0019,-24.002 -67.002,-52.0019 l -53.9938,-52.99811 -13.0079,54.99031 c -17.9999,78.999 -35.9998,210.0048 -29.9998,216.0048 z m -198.0028,-126.0058 c 24.9997,0 43.9997,-7.9903 59.9998,-24.9903 35.9997,-34.9999 37.0067,-85.0068 2.0061,-122.00679 -29.0001,-31.99998 -90.0068,-30.99323 -122.0067,2.00699 -54,53 -16.0003,144.9903 60,144.9903 z m -709.658,-3.7345 c 15.8437,-3.3281 31.6591,-11.504 45.6589,-25.2539 39.0002,-39.9999 39.0002,-82.0068 0,-122.00672 -32.9996,-32.00011 -57.9899,-36.00392 -99.99,-14.0039 -32,15.99995 -41.0008,32.99902 -41.0008,78.99892 0,58.5 47.8004,92.25 95.3319,82.2656 z m -363.80852,-47.5635 c -8.1972,0.7446 -13.78399,-3.9462 -17.53394,-13.6962 -4.00022,-8.0001 -4.00022,-24.9981 0,-37.9981 5.9998,-23 92.01055,-127.00174 106.01056,-127.00174 3.99998,0 11.99227,16.99795 16.992,37.99801 10.00021,37.99995 9.00591,39.9999 -38.9939,89.99983 -31.87499,33.125 -52.81255,49.458 -66.47472,50.6982 z M 2470.9996,976.72264 c 7.7499,-7.00002 23.5018,-36.00884 52.002,-91.50889 l 38.994,-75.99603 -31.992,-46.99232 c -17.9999,-24.99991 -35.0129,-46.01044 -38.0129,-46.01044 -3.0001,0 -8.9933,36.99778 -12.9931,82.99776 -2.9998,45.00003 -8.9971,107.00704 -11.9971,137.00705 -3.4999,32.49977 -3.7509,47.50277 3.9991,40.50287 z" fill="#0b3c8b" id="path23"></path>
  </g>
</svg>
