


<svg xmlns="http://www.w3.org/2000/svg" id="svg2985" version="1.1" width="300" height="297">
  
  <defs id="defs2989"></defs>
  
  <g id="g4085">
    <path id="path2995-7-0" d="m -88.045731,54.874245 c 0,22.91814 -18.578819,41.496963 -41.496959,41.496963 -22.91814,0 -41.49697,-18.578823 -41.49697,-41.496963 0,-22.91814 18.57883,-41.496964 41.49697,-41.496964 22.91814,0 41.496959,18.578824 41.496959,41.496964 z" style="fill:none;stroke:#ff0000;stroke-width:1.13861382px;stroke-linecap:butt;stroke-linejoin:miter;stroke-opacity:1" transform="matrix(0.87826084,0,0,0.87826084,263.77228,100.3061)"></path>
    <path id="path3037" d="m -88.045731,54.874245 c 0,22.91814 -18.578819,41.496963 -41.496959,41.496963 -22.91814,0 -41.49697,-18.578823 -41.49697,-41.496963 0,-22.91814 18.57883,-41.496964 41.49697,-41.496964 22.91814,0 41.496959,18.578824 41.496959,41.496964 z" style="fill:#ff0000;stroke:#ff0000;stroke-width:1.13861382px;stroke-linecap:butt;stroke-linejoin:miter;stroke-opacity:1" transform="matrix(0.87826084,0,0,0.87826084,263.77228,100.3061)"></path>
    <path id="rect3045" d="M 71.125 70.65625 L 71.125 226.34375 L 228.875 226.34375 L 228.875 70.65625 L 71.125 70.65625 z M 81.59375 81 L 218.40625 81 L 218.40625 216 L 81.59375 216 L 81.59375 81 z " style="fill:#ff0000;stroke:#ff0000;stroke-width:1.10000002000000000;stroke-linecap:square;stroke-linejoin:miter;stroke-miterlimit:4;stroke-opacity:1;stroke-dasharray:none;stroke-dashoffset:0"></path>
    <path id="rect3833" d="M 2.1854618,35.642047 37.312895,2.727099 128.4031,119.67901 l -7.82589,7.52706 z" style="fill:#ff0000;stroke:#ff0000;stroke-width:1.10000002000000000;stroke-linecap:square;stroke-linejoin:miter;stroke-miterlimit:4;stroke-opacity:1;stroke-dashoffset:0"></path>
    <path id="rect3833-3" d="M 297.65687,34.570787 262.52944,1.6558391 171.43923,118.60775 l 7.82589,7.52706 z" style="fill:#ff0000;stroke:#ff0000;stroke-width:1.10000002000000000;stroke-linecap:square;stroke-linejoin:miter;stroke-miterlimit:4;stroke-opacity:1;stroke-dashoffset:0"></path>
    <path id="rect3833-0" d="M 1.8429451,262.4553 36.970385,295.37025 128.06059,178.41834 120.2347,170.89128 z" style="fill:#ff0000;stroke:#ff0000;stroke-width:1.10000002000000000;stroke-linecap:square;stroke-linejoin:miter;stroke-miterlimit:4;stroke-opacity:1;stroke-dashoffset:0"></path>
    <path id="rect3833-0-3" d="m 297.65687,262.09446 -35.12744,32.91495 -91.0902,-116.95191 7.82589,-7.52706 z" style="fill:#ff0000;stroke:#ff0000;stroke-width:1.10000002000000000;stroke-linecap:square;stroke-linejoin:miter;stroke-miterlimit:4;stroke-opacity:1;stroke-dashoffset:0"></path>
    <path id="rect3833-0-0" d="m 80.990352,157.53052 0.426409,19.64691 35.277269,-14.27535 -2.95451,-9.87254 z" style="fill:#ff0000;stroke:#ff0000;stroke-width:1.10000002000000000;stroke-linecap:square;stroke-linejoin:miter;stroke-miterlimit:4;stroke-opacity:1;stroke-dashoffset:0"></path>
    <path id="rect3833-0-0-5" d="m 219.16885,157.51209 -0.42641,19.64691 -35.27727,-14.27535 2.95451,-9.87254 z" style="fill:#ff0000;stroke:#ff0000;stroke-width:1.10000002000000000;stroke-linecap:square;stroke-linejoin:miter;stroke-miterlimit:4;stroke-opacity:1;stroke-dashoffset:0"></path>
    <path id="rect3833-0-0-7" d="m 81.161953,140.09116 0.426409,-19.64691 35.277268,14.27535 -2.95451,9.87254 z" style="fill:#ff0000;stroke:#ff0000;stroke-width:1.10000002000000000;stroke-linecap:square;stroke-linejoin:miter;stroke-miterlimit:4;stroke-opacity:1;stroke-dashoffset:0"></path>
    <path id="rect3833-0-0-7-2" d="m 218.91369,140.25338 -0.4264,-19.64691 -35.27727,14.27535 2.95451,9.87254 z" style="fill:#ff0000;stroke:#ff0000;stroke-width:1.10000002000000000;stroke-linecap:square;stroke-linejoin:miter;stroke-miterlimit:4;stroke-opacity:1;stroke-dashoffset:0"></path>
    <path id="rect3833-0-0-7-4" d="m 158.0224,80.637859 19.64691,0.42641 -14.27535,35.277261 -9.87254,-2.95451 z" style="fill:#ff0000;stroke:#ff0000;stroke-width:1.10000002000000000;stroke-linecap:square;stroke-linejoin:miter;stroke-miterlimit:4;stroke-opacity:1;stroke-dashoffset:0"></path>
    <path id="rect3833-0-0-7-41" d="m 140.76369,80.637854 -19.64691,0.42641 14.27535,35.277256 9.87254,-2.95451 z" style="fill:#ff0000;stroke:#ff0000;stroke-width:1.10000002000000000;stroke-linecap:square;stroke-linejoin:miter;stroke-miterlimit:4;stroke-opacity:1;stroke-dashoffset:0"></path>
    <path id="rect3833-0-0-7-41-5" d="m 158.27755,218.14823 19.64691,-0.42641 -14.27535,-35.27726 -9.87254,2.95451 z" style="fill:#ff0000;stroke:#ff0000;stroke-width:1.10000002000000000;stroke-linecap:square;stroke-linejoin:miter;stroke-miterlimit:4;stroke-opacity:1;stroke-dashoffset:0"></path>
    <path id="rect3833-0-0-7-41-6" d="m 141.52915,217.89307 -19.64691,-0.42641 14.27535,-35.27726 9.87254,2.95451 z" style="fill:#ff0000;stroke:#ff0000;stroke-width:1.10000002000000000;stroke-linecap:square;stroke-linejoin:miter;stroke-miterlimit:4;stroke-opacity:1;stroke-dashoffset:0"></path>
    <path id="path4012" d="m 279.56323,149.46026 18.23279,-8.06394 C 297.80623,59.344629 233.73335,-0.58200509 151.62663,-0.58200509 69.519901,-0.58200509 1.5558813,66.680325 1.4094161,148.83047 l 18.0761139,-8.07556 17.912518,7.37888 C 38.341872,85.524733 87.822101,35.916937 150.00001,35.916937 c 60.03694,0 109.12979,45.526576 112.21288,104.884033 z m -129.56322,111.6228 c -59.95986,0 -109.067631,-44.89569 -112.230985,-103.90888 l -17.381387,-8.39051 -18.1621538,8.01525 c 1.6228367,80.64944 66.9984148,140.78309 148.1253658,140.78309 81.53189,0 147.42486,-66.45538 148.35369,-147.99316 l -18.2392,7.90017 -17.96769,-8.35169 c -0.45679,61.9871 -50.31973,111.94573 -112.49764,111.94573 z" style="fill:#ff0000;stroke:#ff0000;stroke-width:1px;stroke-linecap:butt;stroke-linejoin:miter;stroke-opacity:1"></path>
  </g>
</svg>
