<svg xmlns="http://www.w3.org/2000/svg" height="48" viewBox="0 -960 960 960" width="48"><path d="M702-64H258q-30.75 0-51.875-21.125T185-137v-686q0-30.75 21.125-51.875T258-896h444q30.75 0 51.875 21.125T775-823v686q0 30.75-21.125 51.875T702-64ZM481-601q34 0 57.5-23.5T562-682q0-34-23.5-57.5T481-763q-34 0-57.5 23.5T400-682q0 34 23.5 57.5T481-601Zm-1 414q71.6 0 121.8-50.2T652-359q0-71.6-50.2-121.8T480-531q-71.6 0-121.8 50.2T308-359q0 71.6 50.2 121.8T480-187Zm-.159-73Q439-260 410-289.159q-29-29.16-29-70Q381-400 410.159-429q29.16-29 70-29Q521-458 550-428.841q29 29.16 29 70Q579-318 549.841-289q-29.16 29-70 29Z"/></svg>